<svg xmlns="http://www.w3.org/2000/svg" xmlns:xlink="http://www.w3.org/1999/xlink" width="1621" zoomAndPan="magnify" viewBox="0 0 1215.75 458.999989" height="612" preserveAspectRatio="xMidYMid meet" version="1.0"><defs><g/><clipPath id="127d24da6a"><path d="M 0 9.886719 L 386.171875 9.886719 L 386.171875 396.054688 L 0 396.054688 Z M 0 9.886719 " clip-rule="nonzero"/></clipPath><clipPath id="1d2196decd"><path d="M 51 217 L 386.171875 217 L 386.171875 338 L 51 338 Z M 51 217 " clip-rule="nonzero"/></clipPath><clipPath id="4faaab75da"><path d="M 0.304688 50 L 343 50 L 343 256 L 0.304688 256 Z M 0.304688 50 " clip-rule="nonzero"/></clipPath><clipPath id="789a03b5ac"><path d="M 0.304688 62 L 259 62 L 259 218 L 0.304688 218 Z M 0.304688 62 " clip-rule="nonzero"/></clipPath><clipPath id="2fdb3a5854"><rect x="0" width="387" y="0" height="388"/></clipPath><clipPath id="a41d964df2"><rect x="0" width="683" y="0" height="206"/></clipPath></defs><g clip-path="url(#127d24da6a)"><g transform="matrix(1, 0, 0, 1, 0, 9)"><g clip-path="url(#2fdb3a5854)"><g clip-path="url(#1d2196decd)"><path fill="#51518e" d="M 51.457031 267.382812 C 51.457031 267.382812 163.09375 354.421875 295.417969 335.039062 C 427.738281 315.648438 399.542969 224.988281 314.242188 217.03125 L 294.160156 220.875 L 61.210938 265.519531 Z M 51.457031 267.382812 " fill-opacity="1" fill-rule="nonzero"/><path fill="#3e3e7a" d="M 51.457031 267.382812 C 51.457031 267.382812 163.09375 354.421875 295.417969 335.039062 C 427.738281 315.648438 399.542969 224.988281 314.242188 217.03125 L 294.160156 220.875 C 306.195312 224.832031 325.054688 232.144531 345.128906 244.214844 C 370.863281 267.890625 361.648438 307.847656 287.054688 318.785156 C 231.730469 326.890625 181.046875 311.152344 145.910156 294.800781 L 94.566406 267.609375 L 61.210938 265.519531 Z M 51.457031 267.382812 " fill-opacity="1" fill-rule="nonzero"/></g><g clip-path="url(#4faaab75da)"><path fill="#fcf4f6" d="M 1.695312 207.601562 C 12.03125 243.148438 59.210938 253.484375 59.210938 253.484375 L 207.847656 255.75 L 278.132812 211.847656 C 385.242188 156.3125 336.78125 34.734375 283.949219 51.695312 C 275.292969 54.472656 266.929688 58.277344 258.65625 62.761719 C 216.433594 85.609375 176.71875 125.972656 114.308594 136.519531 C 39.664062 149.121094 -8.640625 172.054688 1.695312 207.601562 Z M 1.695312 207.601562 " fill-opacity="1" fill-rule="nonzero"/></g><g clip-path="url(#789a03b5ac)"><path fill="#f0e3e7" d="M 1.695312 207.601562 C 1.695312 207.601562 30.449219 232.96875 112.851562 200.496094 C 195.246094 168.019531 200.898438 112.117188 258.65625 62.761719 C 216.433594 85.609375 176.71875 125.972656 114.308594 136.519531 C 39.664062 149.121094 -8.640625 172.054688 1.695312 207.601562 Z M 1.695312 207.601562 " fill-opacity="1" fill-rule="nonzero"/></g><path fill="#ffe262" d="M 26.933594 239.460938 C 26.933594 239.460938 238.386719 235.390625 331.117188 162.035156 C 331.117188 162.035156 347.964844 191.027344 325.820312 218.675781 C 325.820312 218.675781 212.917969 274.777344 49.355469 270.773438 C 49.355469 270.773438 31.96875 263.402344 26.933594 239.460938 Z M 26.933594 239.460938 " fill-opacity="1" fill-rule="nonzero"/><path fill="#ffe262" d="M 257.285156 128.40625 C 257.285156 129.902344 257.335938 131.390625 257.429688 132.878906 C 257.523438 134.363281 257.667969 135.839844 257.855469 137.304688 C 258.046875 138.773438 258.28125 140.21875 258.5625 141.648438 C 258.84375 143.078125 259.167969 144.484375 259.539062 145.863281 C 259.910156 147.242188 260.324219 148.59375 260.78125 149.910156 C 261.242188 151.226562 261.738281 152.507812 262.277344 153.75 C 262.816406 154.992188 263.394531 156.191406 264.007812 157.34375 C 264.621094 158.5 265.273438 159.605469 265.960938 160.664062 C 266.644531 161.71875 267.363281 162.722656 268.113281 163.667969 C 268.863281 164.617188 269.640625 165.503906 270.445312 166.335938 C 271.253906 167.164062 272.082031 167.933594 272.9375 168.636719 C 273.792969 169.339844 274.667969 169.980469 275.566406 170.550781 C 276.460938 171.121094 277.371094 171.625 278.300781 172.058594 C 279.230469 172.492188 280.167969 172.855469 281.121094 173.144531 C 282.070312 173.4375 283.027344 173.65625 283.992188 173.804688 C 284.957031 173.949219 285.925781 174.023438 286.894531 174.023438 C 287.867188 174.023438 288.832031 173.949219 289.796875 173.804688 C 290.761719 173.65625 291.722656 173.4375 292.671875 173.144531 C 293.625 172.855469 294.5625 172.492188 295.492188 172.058594 C 296.417969 171.625 297.332031 171.121094 298.226562 170.550781 C 299.121094 169.980469 299.996094 169.339844 300.851562 168.636719 C 301.707031 167.933594 302.539062 167.164062 303.34375 166.335938 C 304.152344 165.503906 304.929688 164.617188 305.679688 163.667969 C 306.429688 162.722656 307.144531 161.71875 307.832031 160.664062 C 308.519531 159.605469 309.167969 158.5 309.785156 157.34375 C 310.398438 156.191406 310.976562 154.992188 311.515625 153.75 C 312.054688 152.507812 312.550781 151.226562 313.007812 149.910156 C 313.464844 148.59375 313.878906 147.242188 314.25 145.863281 C 314.621094 144.484375 314.949219 143.078125 315.230469 141.648438 C 315.511719 140.21875 315.746094 138.773438 315.933594 137.304688 C 316.125 135.839844 316.265625 134.363281 316.363281 132.878906 C 316.457031 131.390625 316.503906 129.902344 316.503906 128.40625 C 316.503906 126.914062 316.457031 125.421875 316.363281 123.9375 C 316.265625 122.449219 316.125 120.972656 315.933594 119.507812 C 315.746094 118.042969 315.511719 116.59375 315.230469 115.164062 C 314.949219 113.734375 314.621094 112.332031 314.25 110.949219 C 313.878906 109.570312 313.464844 108.222656 313.007812 106.902344 C 312.550781 105.585938 312.054688 104.308594 311.515625 103.066406 C 310.976562 101.824219 310.398438 100.625 309.785156 99.46875 C 309.167969 98.3125 308.519531 97.207031 307.832031 96.152344 C 307.144531 95.097656 306.429688 94.09375 305.679688 93.144531 C 304.929688 92.199219 304.152344 91.308594 303.34375 90.480469 C 302.539062 89.648438 301.707031 88.882812 300.851562 88.179688 C 299.996094 87.472656 299.121094 86.835938 298.226562 86.265625 C 297.332031 85.691406 296.417969 85.191406 295.492188 84.757812 C 294.5625 84.320312 293.625 83.960938 292.671875 83.667969 C 291.722656 83.375 290.761719 83.15625 289.796875 83.011719 C 288.832031 82.863281 287.867188 82.792969 286.894531 82.792969 C 285.925781 82.792969 284.957031 82.863281 283.992188 83.011719 C 283.027344 83.15625 282.070312 83.375 281.121094 83.667969 C 280.167969 83.960938 279.230469 84.320312 278.300781 84.757812 C 277.371094 85.191406 276.460938 85.691406 275.566406 86.265625 C 274.667969 86.835938 273.792969 87.472656 272.9375 88.179688 C 272.082031 88.882812 271.253906 89.648438 270.445312 90.480469 C 269.640625 91.308594 268.863281 92.199219 268.113281 93.144531 C 267.363281 94.09375 266.644531 95.097656 265.960938 96.152344 C 265.273438 97.207031 264.621094 98.3125 264.007812 99.46875 C 263.394531 100.625 262.816406 101.824219 262.277344 103.066406 C 261.738281 104.308594 261.242188 105.585938 260.78125 106.902344 C 260.324219 108.222656 259.910156 109.570312 259.539062 110.949219 C 259.167969 112.332031 258.84375 113.734375 258.5625 115.164062 C 258.28125 116.59375 258.046875 118.042969 257.855469 119.507812 C 257.667969 120.972656 257.523438 122.449219 257.429688 123.9375 C 257.335938 125.421875 257.285156 126.914062 257.285156 128.40625 Z M 257.285156 128.40625 " fill-opacity="1" fill-rule="nonzero"/></g></g></g><g transform="matrix(1, 0, 0, 1, 419, 109)"><g clip-path="url(#a41d964df2)"><g fill="#3e3e7a" fill-opacity="1"><g transform="translate(1.008419, 154.206397)"><g><path d="M 58.609375 3.03125 C 51.117188 3.03125 44.210938 1.644531 37.890625 -1.125 C 31.578125 -3.894531 26.09375 -7.71875 21.4375 -12.59375 C 16.78125 -17.476562 13.164062 -23.144531 10.59375 -29.59375 C 8.019531 -36.039062 6.734375 -42.910156 6.734375 -50.203125 C 6.734375 -57.492188 8.019531 -64.347656 10.59375 -70.765625 C 13.164062 -77.179688 16.78125 -82.847656 21.4375 -87.765625 C 26.09375 -92.679688 31.578125 -96.519531 37.890625 -99.28125 C 44.210938 -102.050781 51.117188 -103.4375 58.609375 -103.4375 C 67.265625 -103.4375 74.992188 -101.757812 81.796875 -98.40625 C 88.609375 -95.050781 94.304688 -90.476562 98.890625 -84.6875 C 103.484375 -78.894531 106.726562 -72.316406 108.625 -64.953125 L 84.5 -64.953125 C 82.28125 -70.554688 78.859375 -74.707031 74.234375 -77.40625 C 69.609375 -80.113281 64.429688 -81.46875 58.703125 -81.46875 C 55.054688 -81.46875 51.539062 -80.765625 48.15625 -79.359375 C 44.769531 -77.960938 41.722656 -75.925781 39.015625 -73.25 C 36.316406 -70.582031 34.171875 -67.3125 32.578125 -63.4375 C 30.984375 -59.5625 30.1875 -55.148438 30.1875 -50.203125 C 30.1875 -45.253906 30.984375 -40.84375 32.578125 -36.96875 C 34.171875 -33.09375 36.316406 -29.800781 39.015625 -27.09375 C 41.722656 -24.394531 44.785156 -22.347656 48.203125 -20.953125 C 51.617188 -19.554688 55.117188 -18.859375 58.703125 -18.859375 C 64.429688 -18.859375 69.609375 -20.269531 74.234375 -23.09375 C 78.859375 -25.925781 82.28125 -30.472656 84.5 -36.734375 L 108.515625 -36.734375 C 106.828125 -28.984375 103.671875 -22.109375 99.046875 -16.109375 C 94.421875 -10.117188 88.671875 -5.429688 81.796875 -2.046875 C 74.929688 1.335938 67.203125 3.03125 58.609375 3.03125 Z M 58.609375 3.03125 "/></g></g></g><g fill="#3e3e7a" fill-opacity="1"><g transform="translate(101.598116, 154.206397)"><g><path d="M 54.015625 3.03125 C 47.242188 3.03125 40.972656 1.664062 35.203125 -1.0625 C 29.441406 -3.800781 24.425781 -7.613281 20.15625 -12.5 C 15.894531 -17.382812 12.59375 -23.050781 10.25 -29.5 C 7.90625 -35.945312 6.734375 -42.847656 6.734375 -50.203125 C 6.734375 -57.566406 7.921875 -64.453125 10.296875 -70.859375 C 12.679688 -77.273438 16.003906 -82.925781 20.265625 -87.8125 C 24.535156 -92.695312 29.535156 -96.519531 35.265625 -99.28125 C 40.992188 -102.050781 47.210938 -103.4375 53.921875 -103.4375 C 62.117188 -103.4375 69.410156 -101.660156 75.796875 -98.109375 C 82.179688 -94.566406 86.96875 -89.671875 90.15625 -83.421875 L 90.15625 -100.421875 L 112.625 -100.421875 L 112.625 0 L 90.15625 0 L 90.15625 -16.90625 C 86.90625 -10.644531 82.101562 -5.753906 75.75 -2.234375 C 69.394531 1.273438 62.148438 3.03125 54.015625 3.03125 Z M 59.6875 -18.859375 C 63.78125 -18.859375 67.617188 -19.65625 71.203125 -21.25 C 74.785156 -22.84375 77.925781 -25.054688 80.625 -27.890625 C 83.332031 -30.722656 85.4375 -34.039062 86.9375 -37.84375 C 88.4375 -41.65625 89.1875 -45.773438 89.1875 -50.203125 C 89.1875 -54.566406 88.421875 -58.65625 86.890625 -62.46875 C 85.359375 -66.28125 83.253906 -69.617188 80.578125 -72.484375 C 77.910156 -75.347656 74.785156 -77.578125 71.203125 -79.171875 C 67.617188 -80.765625 63.78125 -81.5625 59.6875 -81.5625 C 54.28125 -81.5625 49.34375 -80.257812 44.875 -77.65625 C 40.414062 -75.050781 36.851562 -71.40625 34.1875 -66.71875 C 31.519531 -62.03125 30.1875 -56.523438 30.1875 -50.203125 C 30.1875 -43.691406 31.535156 -38.09375 34.234375 -33.40625 C 36.941406 -28.71875 40.539062 -25.117188 45.03125 -22.609375 C 49.519531 -20.109375 54.40625 -18.859375 59.6875 -18.859375 Z M 59.6875 -18.859375 "/></g></g></g><g fill="#3e3e7a" fill-opacity="1"><g transform="translate(214.885961, 154.206397)"><g><path d="M 37.515625 34.28125 L 13.875 34.28125 L 13.875 -100.421875 L 36.34375 -100.421875 L 36.34375 -83.515625 C 39.988281 -89.566406 44.835938 -94.382812 50.890625 -97.96875 C 56.941406 -101.550781 63.582031 -103.34375 70.8125 -103.34375 C 77.976562 -103.34375 84.539062 -101.957031 90.5 -99.1875 C 96.457031 -96.425781 101.617188 -92.617188 105.984375 -87.765625 C 110.347656 -82.910156 113.734375 -77.273438 116.140625 -70.859375 C 118.546875 -64.453125 119.75 -57.566406 119.75 -50.203125 C 119.75 -42.847656 118.546875 -35.945312 116.140625 -29.5 C 113.734375 -23.050781 110.332031 -17.382812 105.9375 -12.5 C 101.539062 -7.613281 96.394531 -3.800781 90.5 -1.0625 C 84.601562 1.664062 78.140625 3.03125 71.109375 3.03125 C 66.222656 3.03125 61.597656 2.226562 57.234375 0.625 C 52.878906 -0.96875 48.972656 -3.210938 45.515625 -6.109375 C 42.066406 -9.003906 39.234375 -12.375 37.015625 -16.21875 L 37.515625 -4.59375 Z M 66.8125 -18.75 C 72.15625 -18.75 77.054688 -20.019531 81.515625 -22.5625 C 85.972656 -25.101562 89.550781 -28.734375 92.25 -33.453125 C 94.957031 -38.171875 96.3125 -43.753906 96.3125 -50.203125 C 96.3125 -56.523438 94.972656 -62.03125 92.296875 -66.71875 C 89.628906 -71.40625 86.066406 -75.050781 81.609375 -77.65625 C 77.148438 -80.257812 72.1875 -81.5625 66.71875 -81.5625 C 62.613281 -81.5625 58.785156 -80.765625 55.234375 -79.171875 C 51.679688 -77.578125 48.554688 -75.347656 45.859375 -72.484375 C 43.160156 -69.617188 41.046875 -66.296875 39.515625 -62.515625 C 37.984375 -58.734375 37.21875 -54.628906 37.21875 -50.203125 C 37.21875 -45.648438 38 -41.453125 39.5625 -37.609375 C 41.125 -33.765625 43.269531 -30.425781 46 -27.59375 C 48.738281 -24.757812 51.898438 -22.578125 55.484375 -21.046875 C 59.066406 -19.515625 62.84375 -18.75 66.8125 -18.75 Z M 66.8125 -18.75 "/></g></g></g><g fill="#3e3e7a" fill-opacity="1"><g transform="translate(328.173805, 154.206397)"><g><path d="M 75.609375 0 L 55.1875 0 C 52.195312 0 49.117188 -0.273438 45.953125 -0.828125 C 42.796875 -1.378906 39.785156 -2.40625 36.921875 -3.90625 C 34.054688 -5.40625 31.5 -7.570312 29.25 -10.40625 C 27.007812 -13.238281 25.21875 -16.914062 23.875 -21.4375 C 22.539062 -25.96875 21.875 -31.550781 21.875 -38.1875 L 21.875 -80.09375 L 1.078125 -80.09375 L 1.078125 -100.421875 L 21.875 -100.421875 L 21.875 -129.8125 L 45.515625 -130.015625 L 45.515625 -100.421875 L 75.609375 -100.421875 L 75.609375 -80.09375 L 45.515625 -80.09375 L 45.515625 -37.125 C 45.515625 -32.425781 46.195312 -28.804688 47.5625 -26.265625 C 48.9375 -23.734375 50.742188 -21.992188 52.984375 -21.046875 C 55.234375 -20.109375 57.597656 -19.640625 60.078125 -19.640625 L 75.609375 -19.640625 Z M 75.609375 0 "/></g></g></g><g fill="#3e3e7a" fill-opacity="1"><g transform="translate(395.845996, 154.206397)"><g><path d="M 54.015625 3.03125 C 47.242188 3.03125 40.972656 1.664062 35.203125 -1.0625 C 29.441406 -3.800781 24.425781 -7.613281 20.15625 -12.5 C 15.894531 -17.382812 12.59375 -23.050781 10.25 -29.5 C 7.90625 -35.945312 6.734375 -42.847656 6.734375 -50.203125 C 6.734375 -57.566406 7.921875 -64.453125 10.296875 -70.859375 C 12.679688 -77.273438 16.003906 -82.925781 20.265625 -87.8125 C 24.535156 -92.695312 29.535156 -96.519531 35.265625 -99.28125 C 40.992188 -102.050781 47.210938 -103.4375 53.921875 -103.4375 C 62.117188 -103.4375 69.410156 -101.660156 75.796875 -98.109375 C 82.179688 -94.566406 86.96875 -89.671875 90.15625 -83.421875 L 90.15625 -100.421875 L 112.625 -100.421875 L 112.625 0 L 90.15625 0 L 90.15625 -16.90625 C 86.90625 -10.644531 82.101562 -5.753906 75.75 -2.234375 C 69.394531 1.273438 62.148438 3.03125 54.015625 3.03125 Z M 59.6875 -18.859375 C 63.78125 -18.859375 67.617188 -19.65625 71.203125 -21.25 C 74.785156 -22.84375 77.925781 -25.054688 80.625 -27.890625 C 83.332031 -30.722656 85.4375 -34.039062 86.9375 -37.84375 C 88.4375 -41.65625 89.1875 -45.773438 89.1875 -50.203125 C 89.1875 -54.566406 88.421875 -58.65625 86.890625 -62.46875 C 85.359375 -66.28125 83.253906 -69.617188 80.578125 -72.484375 C 77.910156 -75.347656 74.785156 -77.578125 71.203125 -79.171875 C 67.617188 -80.765625 63.78125 -81.5625 59.6875 -81.5625 C 54.28125 -81.5625 49.34375 -80.257812 44.875 -77.65625 C 40.414062 -75.050781 36.851562 -71.40625 34.1875 -66.71875 C 31.519531 -62.03125 30.1875 -56.523438 30.1875 -50.203125 C 30.1875 -43.691406 31.535156 -38.09375 34.234375 -33.40625 C 36.941406 -28.71875 40.539062 -25.117188 45.03125 -22.609375 C 49.519531 -20.109375 54.40625 -18.859375 59.6875 -18.859375 Z M 59.6875 -18.859375 "/></g></g></g><g fill="#3e3e7a" fill-opacity="1"><g transform="translate(509.133841, 154.206397)"><g><path d="M 25.5 -116.046875 C 20.9375 -116.046875 17.367188 -117.363281 14.796875 -120 C 12.222656 -122.632812 10.9375 -125.84375 10.9375 -129.625 C 10.9375 -133.269531 12.222656 -136.425781 14.796875 -139.09375 C 17.367188 -141.757812 20.96875 -143.09375 25.59375 -143.09375 C 30.34375 -143.09375 34.003906 -141.757812 36.578125 -139.09375 C 39.148438 -136.425781 40.4375 -133.269531 40.4375 -129.625 C 40.4375 -125.84375 39.148438 -122.632812 36.578125 -120 C 34.003906 -117.363281 30.3125 -116.046875 25.5 -116.046875 Z M 37.515625 0 L 13.875 0 L 13.875 -100.421875 L 37.515625 -100.421875 Z M 37.515625 0 "/></g></g></g><g fill="#3e3e7a" fill-opacity="1"><g transform="translate(547.20958, 154.206397)"><g><path d="M 37.515625 0 L 13.875 0 L 13.875 -100.421875 L 36.34375 -100.421875 L 36.34375 -84.78125 C 38.289062 -88.425781 40.957031 -91.648438 44.34375 -94.453125 C 47.726562 -97.253906 51.664062 -99.453125 56.15625 -101.046875 C 60.65625 -102.640625 65.476562 -103.4375 70.625 -103.4375 C 84.101562 -103.4375 94.195312 -99.15625 100.90625 -90.59375 C 107.613281 -82.03125 110.96875 -69.867188 110.96875 -54.109375 L 110.96875 0 L 87.328125 0 L 87.328125 -53.625 C 87.328125 -63.59375 85.242188 -70.753906 81.078125 -75.109375 C 76.910156 -79.472656 71.242188 -81.65625 64.078125 -81.65625 C 59.453125 -81.65625 55.117188 -80.484375 51.078125 -78.140625 C 47.046875 -75.796875 43.773438 -72.375 41.265625 -67.875 C 38.765625 -63.382812 37.515625 -57.851562 37.515625 -51.28125 Z M 37.515625 0 "/></g></g></g></g></g></svg>