<svg xmlns="http://www.w3.org/2000/svg" xmlns:xlink="http://www.w3.org/1999/xlink" width="1621" zoomAndPan="magnify" viewBox="0 0 1215.75 458.999989" height="612" preserveAspectRatio="xMidYMid meet" version="1.0"><defs><g/><clipPath id="dbfd4ada45"><path d="M 0 9.886719 L 386.171875 9.886719 L 386.171875 396.054688 L 0 396.054688 Z M 0 9.886719 " clip-rule="nonzero"/></clipPath><clipPath id="4675e73ca7"><path d="M 60 220 L 386.171875 220 L 386.171875 338 L 60 338 Z M 60 220 " clip-rule="nonzero"/></clipPath><clipPath id="2a86ebe8b2"><path d="M 0.304688 50 L 342 50 L 342 239 L 0.304688 239 Z M 0.304688 50 " clip-rule="nonzero"/></clipPath><clipPath id="6334dd76aa"><rect x="0" width="387" y="0" height="388"/></clipPath><clipPath id="68667fa168"><rect x="0" width="683" y="0" height="206"/></clipPath></defs><g clip-path="url(#dbfd4ada45)"><g transform="matrix(1, 0, 0, 1, 0, 9)"><g clip-path="url(#6334dd76aa)"><g clip-path="url(#4675e73ca7)"><path fill="#000000" d="M 249.839844 248.304688 C 294.96875 235.765625 323.070312 222.628906 327.167969 220.660156 C 401.496094 235.332031 421.207031 316.269531 296.042969 334.613281 C 282.921875 336.535156 269.972656 337.398438 257.316406 337.398438 C 163.316406 337.402344 84.765625 289.734375 60.492188 273.304688 C 125.847656 273.730469 191.15625 264.613281 249.839844 248.304688 Z M 144.773438 297.210938 C 189.328125 317.945312 239.269531 328.691406 288.089844 321.539062 C 365.351562 310.21875 374.277344 267.992188 347.5625 243.421875 C 346.882812 242.792969 345.820312 242.835938 345.191406 243.519531 C 344.5625 244.203125 344.609375 245.265625 345.289062 245.890625 C 356.03125 255.773438 360.148438 268.066406 356.585938 279.621094 C 350.738281 298.582031 325.59375 312.648438 287.605469 318.214844 C 231.195312 326.480469 179.566406 309.699219 146.191406 294.164062 C 145.355469 293.773438 144.351562 294.136719 143.960938 294.980469 C 143.570312 295.816406 143.933594 296.816406 144.773438 297.210938 Z M 144.773438 297.210938 " fill-opacity="1" fill-rule="nonzero"/></g><path fill="#000000" d="M 331.742188 164.328125 C 334.894531 170.851562 344.125 194.476562 325.878906 217.554688 C 322.554688 219.160156 294.460938 232.429688 248.84375 245.097656 C 204.238281 257.484375 133.300781 271.8125 48.476562 269.78125 C 46.382812 268.761719 32.511719 261.34375 27.566406 241.488281 C 38.015625 241.171875 86.796875 239.273438 144.070312 230.222656 C 202.941406 220.917969 282.972656 201.949219 331.742188 164.328125 Z M 331.742188 164.328125 " fill-opacity="1" fill-rule="nonzero"/><path fill="#000000" d="M 287.691406 83.511719 C 303.234375 83.511719 315.878906 103.398438 315.878906 127.847656 C 315.878906 152.292969 303.234375 172.179688 287.691406 172.179688 C 272.148438 172.179688 259.503906 152.292969 259.503906 127.847656 C 259.503906 103.398438 272.148438 83.511719 287.691406 83.511719 Z M 287.691406 83.511719 " fill-opacity="1" fill-rule="nonzero"/><g clip-path="url(#2a86ebe8b2)"><path fill="#000000" d="M 113.882812 137.683594 C 189.480469 124.914062 232.378906 69.035156 285.230469 52.066406 C 323.394531 39.804688 360.609375 103.898438 330.980469 160.65625 C 282.921875 198.507812 202.582031 217.570312 143.589844 226.898438 C 82.828125 236.503906 31.683594 238.03125 25.972656 238.175781 C 13.3125 229.679688 5.117188 219.285156 1.625 207.261719 C -10.9375 164.066406 69.300781 145.207031 113.882812 137.683594 Z M 287.691406 175.535156 C 305.085938 175.535156 319.238281 154.144531 319.238281 127.84375 C 319.238281 101.546875 305.085938 80.152344 287.691406 80.152344 C 270.296875 80.152344 256.148438 101.546875 256.148438 127.84375 C 256.148438 154.144531 270.296875 175.535156 287.691406 175.535156 Z M 49.445312 218.410156 C 68.140625 216.789062 89.441406 211.308594 112.746094 202.121094 C 173.046875 178.359375 192.859375 142.359375 221.128906 105.328125 C 221.691406 104.59375 221.550781 103.539062 220.8125 102.976562 C 220.078125 102.414062 219.023438 102.554688 218.460938 103.292969 C 190.460938 139.96875 170.835938 175.617188 111.515625 198.996094 C 88.511719 208.066406 67.527344 213.472656 49.152344 215.066406 C 48.230469 215.144531 47.546875 215.957031 47.625 216.882812 C 47.707031 217.835938 48.5625 218.496094 49.445312 218.410156 Z M 49.445312 218.410156 " fill-opacity="1" fill-rule="nonzero"/></g></g></g></g><g transform="matrix(1, 0, 0, 1, 419, 109)"><g clip-path="url(#68667fa168)"><g fill="#000000" fill-opacity="1"><g transform="translate(1.008419, 154.206397)"><g><path d="M 58.609375 3.03125 C 51.117188 3.03125 44.210938 1.644531 37.890625 -1.125 C 31.578125 -3.894531 26.09375 -7.71875 21.4375 -12.59375 C 16.78125 -17.476562 13.164062 -23.144531 10.59375 -29.59375 C 8.019531 -36.039062 6.734375 -42.910156 6.734375 -50.203125 C 6.734375 -57.492188 8.019531 -64.347656 10.59375 -70.765625 C 13.164062 -77.179688 16.78125 -82.847656 21.4375 -87.765625 C 26.09375 -92.679688 31.578125 -96.519531 37.890625 -99.28125 C 44.210938 -102.050781 51.117188 -103.4375 58.609375 -103.4375 C 67.265625 -103.4375 74.992188 -101.757812 81.796875 -98.40625 C 88.609375 -95.050781 94.304688 -90.476562 98.890625 -84.6875 C 103.484375 -78.894531 106.726562 -72.316406 108.625 -64.953125 L 84.5 -64.953125 C 82.28125 -70.554688 78.859375 -74.707031 74.234375 -77.40625 C 69.609375 -80.113281 64.429688 -81.46875 58.703125 -81.46875 C 55.054688 -81.46875 51.539062 -80.765625 48.15625 -79.359375 C 44.769531 -77.960938 41.722656 -75.925781 39.015625 -73.25 C 36.316406 -70.582031 34.171875 -67.3125 32.578125 -63.4375 C 30.984375 -59.5625 30.1875 -55.148438 30.1875 -50.203125 C 30.1875 -45.253906 30.984375 -40.84375 32.578125 -36.96875 C 34.171875 -33.09375 36.316406 -29.800781 39.015625 -27.09375 C 41.722656 -24.394531 44.785156 -22.347656 48.203125 -20.953125 C 51.617188 -19.554688 55.117188 -18.859375 58.703125 -18.859375 C 64.429688 -18.859375 69.609375 -20.269531 74.234375 -23.09375 C 78.859375 -25.925781 82.28125 -30.472656 84.5 -36.734375 L 108.515625 -36.734375 C 106.828125 -28.984375 103.671875 -22.109375 99.046875 -16.109375 C 94.421875 -10.117188 88.671875 -5.429688 81.796875 -2.046875 C 74.929688 1.335938 67.203125 3.03125 58.609375 3.03125 Z M 58.609375 3.03125 "/></g></g></g><g fill="#000000" fill-opacity="1"><g transform="translate(101.598116, 154.206397)"><g><path d="M 54.015625 3.03125 C 47.242188 3.03125 40.972656 1.664062 35.203125 -1.0625 C 29.441406 -3.800781 24.425781 -7.613281 20.15625 -12.5 C 15.894531 -17.382812 12.59375 -23.050781 10.25 -29.5 C 7.90625 -35.945312 6.734375 -42.847656 6.734375 -50.203125 C 6.734375 -57.566406 7.921875 -64.453125 10.296875 -70.859375 C 12.679688 -77.273438 16.003906 -82.925781 20.265625 -87.8125 C 24.535156 -92.695312 29.535156 -96.519531 35.265625 -99.28125 C 40.992188 -102.050781 47.210938 -103.4375 53.921875 -103.4375 C 62.117188 -103.4375 69.410156 -101.660156 75.796875 -98.109375 C 82.179688 -94.566406 86.96875 -89.671875 90.15625 -83.421875 L 90.15625 -100.421875 L 112.625 -100.421875 L 112.625 0 L 90.15625 0 L 90.15625 -16.90625 C 86.90625 -10.644531 82.101562 -5.753906 75.75 -2.234375 C 69.394531 1.273438 62.148438 3.03125 54.015625 3.03125 Z M 59.6875 -18.859375 C 63.78125 -18.859375 67.617188 -19.65625 71.203125 -21.25 C 74.785156 -22.84375 77.925781 -25.054688 80.625 -27.890625 C 83.332031 -30.722656 85.4375 -34.039062 86.9375 -37.84375 C 88.4375 -41.65625 89.1875 -45.773438 89.1875 -50.203125 C 89.1875 -54.566406 88.421875 -58.65625 86.890625 -62.46875 C 85.359375 -66.28125 83.253906 -69.617188 80.578125 -72.484375 C 77.910156 -75.347656 74.785156 -77.578125 71.203125 -79.171875 C 67.617188 -80.765625 63.78125 -81.5625 59.6875 -81.5625 C 54.28125 -81.5625 49.34375 -80.257812 44.875 -77.65625 C 40.414062 -75.050781 36.851562 -71.40625 34.1875 -66.71875 C 31.519531 -62.03125 30.1875 -56.523438 30.1875 -50.203125 C 30.1875 -43.691406 31.535156 -38.09375 34.234375 -33.40625 C 36.941406 -28.71875 40.539062 -25.117188 45.03125 -22.609375 C 49.519531 -20.109375 54.40625 -18.859375 59.6875 -18.859375 Z M 59.6875 -18.859375 "/></g></g></g><g fill="#000000" fill-opacity="1"><g transform="translate(214.885961, 154.206397)"><g><path d="M 37.515625 34.28125 L 13.875 34.28125 L 13.875 -100.421875 L 36.34375 -100.421875 L 36.34375 -83.515625 C 39.988281 -89.566406 44.835938 -94.382812 50.890625 -97.96875 C 56.941406 -101.550781 63.582031 -103.34375 70.8125 -103.34375 C 77.976562 -103.34375 84.539062 -101.957031 90.5 -99.1875 C 96.457031 -96.425781 101.617188 -92.617188 105.984375 -87.765625 C 110.347656 -82.910156 113.734375 -77.273438 116.140625 -70.859375 C 118.546875 -64.453125 119.75 -57.566406 119.75 -50.203125 C 119.75 -42.847656 118.546875 -35.945312 116.140625 -29.5 C 113.734375 -23.050781 110.332031 -17.382812 105.9375 -12.5 C 101.539062 -7.613281 96.394531 -3.800781 90.5 -1.0625 C 84.601562 1.664062 78.140625 3.03125 71.109375 3.03125 C 66.222656 3.03125 61.597656 2.226562 57.234375 0.625 C 52.878906 -0.96875 48.972656 -3.210938 45.515625 -6.109375 C 42.066406 -9.003906 39.234375 -12.375 37.015625 -16.21875 L 37.515625 -4.59375 Z M 66.8125 -18.75 C 72.15625 -18.75 77.054688 -20.019531 81.515625 -22.5625 C 85.972656 -25.101562 89.550781 -28.734375 92.25 -33.453125 C 94.957031 -38.171875 96.3125 -43.753906 96.3125 -50.203125 C 96.3125 -56.523438 94.972656 -62.03125 92.296875 -66.71875 C 89.628906 -71.40625 86.066406 -75.050781 81.609375 -77.65625 C 77.148438 -80.257812 72.1875 -81.5625 66.71875 -81.5625 C 62.613281 -81.5625 58.785156 -80.765625 55.234375 -79.171875 C 51.679688 -77.578125 48.554688 -75.347656 45.859375 -72.484375 C 43.160156 -69.617188 41.046875 -66.296875 39.515625 -62.515625 C 37.984375 -58.734375 37.21875 -54.628906 37.21875 -50.203125 C 37.21875 -45.648438 38 -41.453125 39.5625 -37.609375 C 41.125 -33.765625 43.269531 -30.425781 46 -27.59375 C 48.738281 -24.757812 51.898438 -22.578125 55.484375 -21.046875 C 59.066406 -19.515625 62.84375 -18.75 66.8125 -18.75 Z M 66.8125 -18.75 "/></g></g></g><g fill="#000000" fill-opacity="1"><g transform="translate(328.173805, 154.206397)"><g><path d="M 75.609375 0 L 55.1875 0 C 52.195312 0 49.117188 -0.273438 45.953125 -0.828125 C 42.796875 -1.378906 39.785156 -2.40625 36.921875 -3.90625 C 34.054688 -5.40625 31.5 -7.570312 29.25 -10.40625 C 27.007812 -13.238281 25.21875 -16.914062 23.875 -21.4375 C 22.539062 -25.96875 21.875 -31.550781 21.875 -38.1875 L 21.875 -80.09375 L 1.078125 -80.09375 L 1.078125 -100.421875 L 21.875 -100.421875 L 21.875 -129.8125 L 45.515625 -130.015625 L 45.515625 -100.421875 L 75.609375 -100.421875 L 75.609375 -80.09375 L 45.515625 -80.09375 L 45.515625 -37.125 C 45.515625 -32.425781 46.195312 -28.804688 47.5625 -26.265625 C 48.9375 -23.734375 50.742188 -21.992188 52.984375 -21.046875 C 55.234375 -20.109375 57.597656 -19.640625 60.078125 -19.640625 L 75.609375 -19.640625 Z M 75.609375 0 "/></g></g></g><g fill="#000000" fill-opacity="1"><g transform="translate(395.845996, 154.206397)"><g><path d="M 54.015625 3.03125 C 47.242188 3.03125 40.972656 1.664062 35.203125 -1.0625 C 29.441406 -3.800781 24.425781 -7.613281 20.15625 -12.5 C 15.894531 -17.382812 12.59375 -23.050781 10.25 -29.5 C 7.90625 -35.945312 6.734375 -42.847656 6.734375 -50.203125 C 6.734375 -57.566406 7.921875 -64.453125 10.296875 -70.859375 C 12.679688 -77.273438 16.003906 -82.925781 20.265625 -87.8125 C 24.535156 -92.695312 29.535156 -96.519531 35.265625 -99.28125 C 40.992188 -102.050781 47.210938 -103.4375 53.921875 -103.4375 C 62.117188 -103.4375 69.410156 -101.660156 75.796875 -98.109375 C 82.179688 -94.566406 86.96875 -89.671875 90.15625 -83.421875 L 90.15625 -100.421875 L 112.625 -100.421875 L 112.625 0 L 90.15625 0 L 90.15625 -16.90625 C 86.90625 -10.644531 82.101562 -5.753906 75.75 -2.234375 C 69.394531 1.273438 62.148438 3.03125 54.015625 3.03125 Z M 59.6875 -18.859375 C 63.78125 -18.859375 67.617188 -19.65625 71.203125 -21.25 C 74.785156 -22.84375 77.925781 -25.054688 80.625 -27.890625 C 83.332031 -30.722656 85.4375 -34.039062 86.9375 -37.84375 C 88.4375 -41.65625 89.1875 -45.773438 89.1875 -50.203125 C 89.1875 -54.566406 88.421875 -58.65625 86.890625 -62.46875 C 85.359375 -66.28125 83.253906 -69.617188 80.578125 -72.484375 C 77.910156 -75.347656 74.785156 -77.578125 71.203125 -79.171875 C 67.617188 -80.765625 63.78125 -81.5625 59.6875 -81.5625 C 54.28125 -81.5625 49.34375 -80.257812 44.875 -77.65625 C 40.414062 -75.050781 36.851562 -71.40625 34.1875 -66.71875 C 31.519531 -62.03125 30.1875 -56.523438 30.1875 -50.203125 C 30.1875 -43.691406 31.535156 -38.09375 34.234375 -33.40625 C 36.941406 -28.71875 40.539062 -25.117188 45.03125 -22.609375 C 49.519531 -20.109375 54.40625 -18.859375 59.6875 -18.859375 Z M 59.6875 -18.859375 "/></g></g></g><g fill="#000000" fill-opacity="1"><g transform="translate(509.133841, 154.206397)"><g><path d="M 25.5 -116.046875 C 20.9375 -116.046875 17.367188 -117.363281 14.796875 -120 C 12.222656 -122.632812 10.9375 -125.84375 10.9375 -129.625 C 10.9375 -133.269531 12.222656 -136.425781 14.796875 -139.09375 C 17.367188 -141.757812 20.96875 -143.09375 25.59375 -143.09375 C 30.34375 -143.09375 34.003906 -141.757812 36.578125 -139.09375 C 39.148438 -136.425781 40.4375 -133.269531 40.4375 -129.625 C 40.4375 -125.84375 39.148438 -122.632812 36.578125 -120 C 34.003906 -117.363281 30.3125 -116.046875 25.5 -116.046875 Z M 37.515625 0 L 13.875 0 L 13.875 -100.421875 L 37.515625 -100.421875 Z M 37.515625 0 "/></g></g></g><g fill="#000000" fill-opacity="1"><g transform="translate(547.20958, 154.206397)"><g><path d="M 37.515625 0 L 13.875 0 L 13.875 -100.421875 L 36.34375 -100.421875 L 36.34375 -84.78125 C 38.289062 -88.425781 40.957031 -91.648438 44.34375 -94.453125 C 47.726562 -97.253906 51.664062 -99.453125 56.15625 -101.046875 C 60.65625 -102.640625 65.476562 -103.4375 70.625 -103.4375 C 84.101562 -103.4375 94.195312 -99.15625 100.90625 -90.59375 C 107.613281 -82.03125 110.96875 -69.867188 110.96875 -54.109375 L 110.96875 0 L 87.328125 0 L 87.328125 -53.625 C 87.328125 -63.59375 85.242188 -70.753906 81.078125 -75.109375 C 76.910156 -79.472656 71.242188 -81.65625 64.078125 -81.65625 C 59.453125 -81.65625 55.117188 -80.484375 51.078125 -78.140625 C 47.046875 -75.796875 43.773438 -72.375 41.265625 -67.875 C 38.765625 -63.382812 37.515625 -57.851562 37.515625 -51.28125 Z M 37.515625 0 "/></g></g></g></g></g></svg>