<?xml version="1.0" encoding="UTF-8"?>
<svg id="Layer_1" data-name="Layer 1" xmlns="http://www.w3.org/2000/svg" xmlns:xlink="http://www.w3.org/1999/xlink" version="1.1" viewBox="0 0 1621 612">
  <defs>
    <style>
      .cls-1 {
        clip-path: url(#clippath);
      }

      .cls-2 {
        fill: none;
      }

      .cls-2, .cls-3, .cls-4, .cls-5, .cls-6, .cls-7, .cls-8 {
        stroke-width: 0px;
      }

      .cls-3 {
        fill: #d7d7fd;
      }

      .cls-4 {
        fill: #bdbafd;
      }

      .cls-5 {
        fill: #4200dd;
      }

      .cls-9 {
        clip-path: url(#clippath-1);
      }

      .cls-10 {
        clip-path: url(#clippath-3);
      }

      .cls-11 {
        clip-path: url(#clippath-2);
      }

      .cls-6 {
        fill: #e9e9fd;
      }

      .cls-7 {
        fill: #b2b0fd;
      }

      .cls-8 {
        fill: #c8c5fd;
      }
    </style>
    <clipPath id="clippath">
      <rect class="cls-2" y="13.2" width="514.9" height="514.9"/>
    </clipPath>
    <clipPath id="clippath-1">
      <rect class="cls-2" y="12" width="516" height="517.3"/>
    </clipPath>
    <clipPath id="clippath-2">
      <rect class="cls-2" x=".4" y="77.3" width="514.5" height="386.7"/>
    </clipPath>
    <clipPath id="clippath-3">
      <rect class="cls-2" x="558.7" y="145.3" width="910.7" height="274.7"/>
    </clipPath>
  </defs>
  <g class="cls-1">
    <g class="cls-9">
      <g>
        <path class="cls-6" d="M70.2,367.7s147.6,115.1,322.5,89.4c174.9-25.6,137.6-145.5,24.9-156-64.8,12.4-320.1,61.3-347.4,66.6Z"/>
        <path class="cls-3" d="M70.2,367.7s147.6,115.1,322.5,89.4c174.9-25.6,137.6-145.5,24.9-156l-26.5,5.1c15.9,5.2,40.8,14.9,67.4,30.8,34,31.3,21.8,84.1-76.8,98.6-73.1,10.7-140.1-10.1-186.6-31.7l-67.9-35.9-44.1-2.8-12.9,2.5Z"/>
        <path class="cls-8" d="M4.4,288.6c13.7,47,76,60.7,76,60.7l196.5,3,92.9-58c141.6-73.4,77.5-234.1,7.7-211.7-69.8,22.4-125.6,95.5-224.2,112.1C54.6,211.3-9.2,241.6,4.4,288.6Z"/>
        <path class="cls-4" d="M4.4,288.6s38,33.5,146.9-9.4c108.9-42.9,116.4-116.8,192.7-182.1-55.8,30.2-108.3,83.6-190.8,97.5C54.6,211.3-9.2,241.6,4.4,288.6Z"/>
        <path class="cls-7" d="M37.8,330.7s279.5-5.4,402.1-102.4c0,0,22.3,38.3-7,74.9,0,0-149.2,74.2-365.5,68.9,0,0-23-9.7-29.6-41.4Z"/>
        <path class="cls-7" d="M342.3,183.9c0,2,0,3.9.2,5.9s.3,3.9.6,5.9.6,3.8.9,5.7c.4,1.9.8,3.7,1.3,5.6.5,1.8,1,3.6,1.6,5.3.6,1.7,1.3,3.4,2,5.1.7,1.6,1.5,3.2,2.3,4.8s1.7,3,2.6,4.4c.9,1.4,1.9,2.7,2.8,4,1,1.3,2,2.4,3.1,3.5,1.1,1.1,2.2,2.1,3.3,3,1.1.9,2.3,1.8,3.5,2.5s2.4,1.4,3.6,2c1.2.6,2.5,1.1,3.7,1.4,1.3.4,2.5.7,3.8.9,1.3.2,2.6.3,3.8.3s2.6,0,3.8-.3c1.3-.2,2.5-.5,3.8-.9,1.3-.4,2.5-.9,3.7-1.4,1.2-.6,2.4-1.2,3.6-2,1.2-.8,2.3-1.6,3.5-2.5,1.1-.9,2.2-1.9,3.3-3,1.1-1.1,2.1-2.3,3.1-3.5,1-1.3,1.9-2.6,2.8-4,.9-1.4,1.8-2.9,2.6-4.4s1.6-3.1,2.3-4.8,1.4-3.3,2-5.1c.6-1.7,1.2-3.5,1.6-5.3.5-1.8.9-3.7,1.3-5.6.4-1.9.7-3.8.9-5.7s.4-3.9.6-5.9.2-3.9.2-5.9,0-3.9-.2-5.9c-.1-2-.3-3.9-.6-5.9s-.6-3.9-.9-5.7c-.4-1.9-.8-3.8-1.3-5.6-.5-1.8-1-3.6-1.6-5.3-.6-1.7-1.3-3.4-2-5.1-.7-1.6-1.5-3.2-2.3-4.8s-1.7-3-2.6-4.4-1.9-2.7-2.8-4-2-2.4-3.1-3.5c-1.1-1.1-2.2-2.1-3.3-3s-2.3-1.8-3.5-2.5c-1.2-.8-2.4-1.4-3.6-2-1.2-.6-2.5-1.1-3.7-1.4-1.3-.4-2.5-.7-3.8-.9s-2.6-.3-3.8-.3-2.6,0-3.8.3-2.5.5-3.8.9c-1.3.4-2.5.9-3.7,1.4-1.2.6-2.4,1.2-3.6,2s-2.3,1.6-3.5,2.5-2.2,1.9-3.3,3c-1.1,1.1-2.1,2.3-3.1,3.5-1,1.3-1.9,2.6-2.8,4s-1.8,2.9-2.6,4.4-1.6,3.1-2.3,4.8c-.7,1.6-1.4,3.3-2,5.1-.6,1.7-1.2,3.5-1.6,5.3s-.9,3.7-1.3,5.6c-.4,1.9-.7,3.8-.9,5.7s-.4,3.9-.6,5.9c-.1,2-.2,3.9-.2,5.9Z"/>
        <path class="cls-5" d="M196,401.9c43.7,20.4,111.4,42.3,185.3,31.5,49.8-7.3,82.7-25.7,90.4-50.6,4.7-15.1-.7-31.3-14.8-44.2-.9-.8-1-2.2-.1-3.1s2.2-1,3.1-.1c35,32.2,23.3,87.5-77.9,102.4-64,9.4-129.4-4.7-187.8-31.9-1.1-.5-1.6-1.8-1.1-2.9.5-1.1,1.8-1.6,2.9-1.1Z"/>
        <g class="cls-11">
          <path class="cls-5" d="M7.1,253.8c17.1-27.2,66.2-47.9,145.9-61.3,98.4-16.6,153.3-89.4,223.9-112.1,54.1-17.4,105.5,70.4,65.5,147.9,3.3,6.4,18.5,40.5-5.6,73.5,100.1,21.6,123.5,132.9-43.7,157.4-69.5,10.2-139.1-.8-205.5-26.1-55.7-21.2-96.3-47.8-111.7-58.7-9.1-.1-8.8-.1-9.3-.3-1-.4-23.7-10.4-30.7-42.1-17.4-11.7-28.7-26.1-33.5-42.8-3.7-12.6-2.1-24.5,4.8-35.4ZM341.6,458.6c16.6,0,33.6-1.1,50.8-3.7,164.1-24,138.1-130.1,40.8-149.3-5.4,2.6-42.2,19.8-101.3,36.2-76.9,21.4-162.5,33.3-248.1,32.8,31.8,21.5,134.7,84,257.9,84ZM68,369.9c111.2,2.7,204.1-16.1,262.6-32.3,59.8-16.6,96.6-34,101-36.1,23.9-30.2,11.8-61.2,7.7-69.8-63.9,49.3-168.8,74.2-245.9,86.3-75.1,11.9-139,14.4-152.7,14.8,6.5,26,24.7,35.7,27.4,37.1ZM6.6,288c4.6,15.8,15.3,29.4,31.9,40.5,7.5-.2,74.5-2.2,154.1-14.8,77.3-12.2,182.6-37.2,245.6-86.8,38.8-74.4-9.9-158.4-59.9-142.3-69.3,22.2-125.5,95.5-224.5,112.2-58.4,9.9-163.6,34.6-147.1,91.2Z"/>
        </g>
        <path class="cls-5" d="M68.8,298.2c24.1-2.1,51.6-9.2,81.7-21.1,77.7-30.6,103.5-77.4,140.1-125.4.7-1,2.1-1.2,3.1-.4,1,.7,1.2,2.1.4,3.1-37,48.5-63,95.7-142,126.8-30.5,12-58.5,19.2-83,21.3-1.2.1-2.3-.8-2.4-2-.1-1.2.8-2.3,2-2.4Z"/>
        <path class="cls-5" d="M381.4,121.4c22.8,0,41.3,28,41.3,62.5s-18.5,62.5-41.3,62.5-41.3-28-41.3-62.5,18.5-62.5,41.3-62.5ZM381.4,242c20.4,0,36.9-26.1,36.9-58.1s-16.6-58.1-36.9-58.1-36.9,26.1-36.9,58.1,16.6,58.1,36.9,58.1Z"/>
      </g>
    </g>
  </g>
  <g class="cls-10">
    <g>
      <path class="cls-8" d="M638.2,355c-10,0-19.2-1.8-27.6-5.5-8.4-3.7-15.7-8.8-21.9-15.3-6.2-6.5-11-14.1-14.5-22.7-3.4-8.6-5.1-17.8-5.1-27.5s1.7-18.9,5.1-27.4c3.4-8.6,8.3-16.1,14.5-22.7,6.2-6.6,13.5-11.7,21.9-15.4,8.4-3.7,17.6-5.5,27.6-5.5s21.8,2.2,30.9,6.7c9.1,4.5,16.7,10.6,22.8,18.3,6.1,7.7,10.4,16.5,13,26.3h-32.2c-3-7.5-7.5-13-13.7-16.6-6.2-3.6-13.1-5.4-20.7-5.4s-9.6.9-14.1,2.8c-4.5,1.9-8.6,4.6-12.2,8.1-3.6,3.6-6.5,7.9-8.6,13.1s-3.2,11.1-3.2,17.6,1.1,12.5,3.2,17.6,5,9.6,8.6,13.2c3.6,3.6,7.7,6.3,12.3,8.2,4.6,1.9,9.2,2.8,14,2.8,7.6,0,14.5-1.9,20.7-5.6,6.2-3.8,10.7-9.8,13.7-18.2h32c-2.3,10.3-6.5,19.5-12.6,27.5-6.2,8-13.8,14.2-23,18.8-9.2,4.5-19.5,6.8-30.9,6.8Z"/>
      <path class="cls-8" d="M766.2,355c-9,0-17.4-1.8-25.1-5.5-7.7-3.7-14.4-8.7-20.1-15.3-5.7-6.5-10.1-14.1-13.2-22.7-3.1-8.6-4.7-17.8-4.7-27.6s1.6-19,4.8-27.5c3.2-8.6,7.6-16.1,13.3-22.6,5.7-6.5,12.4-11.6,20-15.3,7.6-3.7,15.9-5.5,24.9-5.5s20.7,2.4,29.2,7.1c8.5,4.7,14.9,11.3,19.1,19.6v-22.7h30v133.9h-30v-22.5c-4.3,8.3-10.7,14.9-19.2,19.6-8.5,4.7-18.1,7-29,7ZM773.7,325.8c5.5,0,10.6-1.1,15.4-3.2,4.8-2.1,9-5.1,12.6-8.9,3.6-3.8,6.4-8.2,8.4-13.3,2-5.1,3-10.6,3-16.5s-1-11.3-3.1-16.4-4.8-9.5-8.4-13.4c-3.6-3.8-7.7-6.8-12.5-8.9-4.8-2.1-9.9-3.2-15.4-3.2s-13.8,1.7-19.8,5.2c-5.9,3.5-10.7,8.3-14.3,14.6-3.6,6.3-5.3,13.6-5.3,22s1.8,16.1,5.4,22.4c3.6,6.3,8.4,11.1,14.4,14.4,6,3.3,12.5,5,19.5,5Z"/>
      <path class="cls-8" d="M895.2,396.7h-31.5v-179.6h30v22.5c4.9-8.1,11.3-14.5,19.4-19.3,8.1-4.8,16.9-7.2,26.6-7.2s18.3,1.8,26.3,5.5c7.9,3.7,14.8,8.8,20.6,15.2,5.8,6.5,10.3,14,13.5,22.5,3.2,8.5,4.8,17.7,4.8,27.5s-1.6,19-4.8,27.6c-3.2,8.6-7.7,16.2-13.6,22.7-5.9,6.5-12.7,11.6-20.6,15.3-7.9,3.6-16.5,5.5-25.9,5.5s-12.7-1.1-18.5-3.2c-5.8-2.1-11-5.1-15.6-9-4.6-3.9-8.4-8.4-11.3-13.5l.7,15.5v51.8ZM934.3,325.9c7.1,0,13.7-1.7,19.6-5.1,5.9-3.4,10.7-8.2,14.3-14.5,3.6-6.3,5.4-13.7,5.4-22.3s-1.8-15.8-5.4-22c-3.6-6.3-8.3-11.1-14.3-14.6-5.9-3.5-12.6-5.2-19.9-5.2s-10.6,1.1-15.3,3.2c-4.7,2.1-8.9,5.1-12.5,8.9-3.6,3.8-6.4,8.3-8.5,13.3s-3.1,10.5-3.1,16.4,1,11.7,3.1,16.8,4.9,9.6,8.6,13.4c3.7,3.8,7.9,6.7,12.6,8.7,4.8,2,9.8,3.1,15.1,3.1Z"/>
      <path class="cls-8" d="M1097,350.9h-27.2c-4,0-8.1-.4-12.3-1.1-4.2-.7-8.2-2.1-12-4.1-3.8-2-7.2-4.9-10.2-8.7-3-3.8-5.4-8.7-7.2-14.7-1.8-6-2.7-13.5-2.7-22.3v-55.9h-27.7v-27.1h27.7v-39.2l31.5-.3v39.5h40.1v27.1h-40.1v57.3c0,6.3.9,11.1,2.7,14.5,1.8,3.4,4.2,5.7,7.2,7,3,1.3,6.2,1.9,9.5,1.9h20.7v26.2Z"/>
      <path class="cls-8" d="M1158.5,355c-9,0-17.4-1.8-25.1-5.5-7.7-3.7-14.4-8.7-20.1-15.3-5.7-6.5-10.1-14.1-13.2-22.7-3.1-8.6-4.7-17.8-4.7-27.6s1.6-19,4.8-27.5c3.2-8.6,7.6-16.1,13.3-22.6,5.7-6.5,12.4-11.6,20-15.3,7.6-3.7,15.9-5.5,24.9-5.5s20.7,2.4,29.2,7.1c8.5,4.7,14.9,11.3,19.1,19.6v-22.7h30v133.9h-30v-22.5c-4.3,8.3-10.7,14.9-19.2,19.6-8.5,4.7-18.1,7-29,7ZM1166,325.8c5.5,0,10.6-1.1,15.4-3.2,4.8-2.1,9-5.1,12.6-8.9,3.6-3.8,6.4-8.2,8.4-13.3,2-5.1,3-10.6,3-16.5s-1-11.3-3.1-16.4-4.8-9.5-8.4-13.4c-3.6-3.8-7.7-6.8-12.5-8.9-4.8-2.1-9.9-3.2-15.4-3.2s-13.8,1.7-19.8,5.2c-5.9,3.5-10.7,8.3-14.3,14.6-3.6,6.3-5.3,13.6-5.3,22s1.8,16.1,5.4,22.4c3.6,6.3,8.4,11.1,14.4,14.4,6,3.3,12.5,5,19.5,5Z"/>
      <path class="cls-8" d="M1271.5,196.2c-6.1,0-10.8-1.8-14.3-5.3-3.4-3.5-5.1-7.8-5.1-12.8s1.7-9.1,5.1-12.6c3.4-3.6,8.2-5.3,14.4-5.3s11.2,1.8,14.6,5.3c3.4,3.6,5.1,7.8,5.1,12.6s-1.7,9.3-5.1,12.8c-3.4,3.5-8.4,5.3-14.8,5.3ZM1287.5,350.9h-31.5v-133.9h31.5v133.9Z"/>
      <path class="cls-8" d="M1338.3,350.9h-31.5v-133.9h30v20.9c2.6-4.9,6.2-9.2,10.7-12.9,4.5-3.7,9.8-6.7,15.8-8.8,6-2.1,12.4-3.2,19.3-3.2,18,0,31.4,5.7,40.4,17.1,8.9,11.4,13.4,27.6,13.4,48.6v72.1h-31.5v-71.5c0-13.3-2.8-22.8-8.3-28.6-5.6-5.8-13.1-8.7-22.7-8.7s-11.9,1.6-17.3,4.7c-5.4,3.1-9.7,7.7-13.1,13.7-3.3,6-5,13.4-5,22.1v68.4Z"/>
    </g>
  </g>
</svg>