<?xml version="1.0" encoding="UTF-8"?>
<svg id="Layer_2" data-name="Layer 2" xmlns="http://www.w3.org/2000/svg" xmlns:xlink="http://www.w3.org/1999/xlink" viewBox="0 0 514.9 514.89">
  <defs>
    <style>
      .cls-1 {
        clip-path: url(#clippath);
      }

      .cls-2 {
        fill: none;
      }

      .cls-2, .cls-3, .cls-4, .cls-5 {
        stroke-width: 0px;
      }

      .cls-3 {
        fill: #cbfcc8;
      }

      .cls-6 {
        clip-path: url(#clippath-1);
      }

      .cls-7 {
        clip-path: url(#clippath-2);
      }

      .cls-4 {
        fill: #4cdd7f;
      }

      .cls-5 {
        fill: #1c3728;
      }
    </style>
    <clipPath id="clippath">
      <rect class="cls-2" width="514.9" height="514.89"/>
    </clipPath>
    <clipPath id="clippath-1">
      <rect class="cls-2" y="-1.18" width="516" height="517.33"/>
    </clipPath>
    <clipPath id="clippath-2">
      <rect class="cls-2" x=".41" y="64.15" width="514.49" height="386.67"/>
    </clipPath>
  </defs>
  <g id="Layer_1-2" data-name="Layer 1">
    <g class="cls-1">
      <g class="cls-6">
        <g>
          <path class="cls-3" d="M70.21,354.47s147.57,115.06,322.48,89.43c174.91-25.64,137.64-145.47,24.89-155.99-64.77,12.4-320.11,61.35-347.37,66.56Z"/>
          <path class="cls-4" d="M70.21,354.47s147.57,115.06,322.48,89.43c174.91-25.64,137.64-145.47,24.89-155.99l-26.55,5.08c15.91,5.22,40.84,14.9,67.38,30.85,34.02,31.3,21.84,84.11-76.77,98.57-73.13,10.71-140.12-10.09-186.57-31.71l-67.87-35.94-44.09-2.77-12.9,2.46Z"/>
          <path class="cls-3" d="M4.44,275.45c13.67,46.98,76.03,60.65,76.03,60.65l196.47,2.99,92.91-58.04c141.59-73.41,77.53-234.12,7.69-211.7-69.84,22.43-125.58,95.46-224.24,112.13C54.63,198.14-9.22,228.46,4.44,275.45Z"/>
          <path class="cls-4" d="M4.44,275.45s38.01,33.53,146.94-9.4c108.91-42.93,116.38-116.82,192.73-182.06-55.81,30.2-108.31,83.56-190.81,97.49C54.63,198.14-9.22,228.46,4.44,275.45Z"/>
          <path class="cls-4" d="M37.8,317.56s279.51-5.38,402.09-102.35c0,0,22.27,38.33-7,74.88,0,0-149.24,74.15-365.45,68.86,0,0-22.98-9.74-29.64-41.39Z"/>
          <path class="cls-4" d="M342.3,170.76c0,1.97.06,3.95.19,5.91s.32,3.92.57,5.85.56,3.85.93,5.74c.37,1.89.8,3.74,1.29,5.57.49,1.82,1.04,3.6,1.64,5.35.61,1.74,1.27,3.43,1.98,5.07.71,1.64,1.47,3.23,2.29,4.76s1.67,2.98,2.58,4.39c.91,1.4,1.85,2.72,2.85,3.97.99,1.25,2.02,2.43,3.08,3.52,1.07,1.1,2.16,2.11,3.29,3.04,1.13.93,2.29,1.78,3.47,2.53s2.39,1.42,3.61,1.99c1.23.57,2.47,1.05,3.73,1.44,1.26.39,2.52.67,3.8.87,1.28.19,2.56.29,3.84.29s2.56-.09,3.83-.29c1.28-.2,2.54-.48,3.8-.87,1.26-.39,2.5-.86,3.72-1.44,1.23-.57,2.43-1.24,3.61-1.99,1.19-.76,2.34-1.6,3.47-2.53,1.13-.93,2.23-1.94,3.3-3.04,1.06-1.09,2.09-2.27,3.08-3.52.99-1.26,1.94-2.58,2.84-3.97.91-1.4,1.77-2.86,2.58-4.39s1.57-3.11,2.29-4.76,1.37-3.33,1.97-5.07c.6-1.74,1.15-3.53,1.64-5.35.49-1.83.92-3.68,1.3-5.57.37-1.89.68-3.8.93-5.74s.44-3.89.56-5.85.19-3.94.19-5.91-.06-3.94-.19-5.91c-.13-1.97-.31-3.92-.56-5.85s-.56-3.85-.93-5.74c-.38-1.89-.8-3.75-1.3-5.57-.49-1.82-1.04-3.61-1.64-5.35-.6-1.74-1.26-3.43-1.97-5.08-.71-1.64-1.47-3.22-2.29-4.75s-1.68-2.99-2.58-4.39-1.85-2.72-2.84-3.97-2.02-2.43-3.08-3.53c-1.07-1.09-2.17-2.11-3.3-3.04s-2.29-1.78-3.47-2.53c-1.18-.76-2.39-1.42-3.61-1.99-1.22-.57-2.47-1.05-3.72-1.44-1.26-.39-2.53-.68-3.8-.87s-2.55-.29-3.83-.29-2.56.1-3.84.29-2.54.48-3.8.87c-1.26.39-2.5.86-3.73,1.44-1.22.57-2.43,1.23-3.61,1.99s-2.34,1.6-3.47,2.53-2.22,1.95-3.29,3.04c-1.07,1.1-2.09,2.27-3.08,3.53-.99,1.26-1.94,2.58-2.85,3.97s-1.77,2.86-2.58,4.39-1.58,3.11-2.29,4.75c-.71,1.65-1.37,3.33-1.98,5.08-.6,1.74-1.15,3.53-1.64,5.35s-.92,3.68-1.29,5.57c-.38,1.89-.68,3.8-.93,5.74s-.44,3.89-.57,5.85c-.13,1.96-.19,3.93-.19,5.91Z"/>
          <path class="cls-5" d="M196.01,388.72c43.74,20.35,111.4,42.35,185.32,31.52,49.79-7.3,82.73-25.73,90.4-50.58,4.67-15.14-.72-31.25-14.8-44.2-.89-.82-.95-2.21-.13-3.11s2.22-.95,3.11-.13c35.01,32.2,23.31,87.54-77.94,102.37-63.98,9.38-129.42-4.71-187.81-31.88-1.1-.52-1.58-1.82-1.07-2.92.51-1.1,1.82-1.58,2.92-1.07Z"/>
          <g class="cls-7">
            <path class="cls-5" d="M7.08,240.65c17.09-27.24,66.17-47.88,145.85-61.33,98.44-16.63,153.33-89.39,223.93-112.06,54.13-17.37,105.48,70.4,65.51,147.93,3.27,6.44,18.46,40.46-5.62,73.45,100.14,21.64,123.52,132.93-43.73,157.43-69.49,10.18-139.08-.8-205.53-26.09-55.71-21.2-96.27-47.81-111.65-58.68-9.14-.14-8.76-.12-9.26-.33-.97-.41-23.69-10.39-30.73-42.09-17.38-11.7-28.66-26.1-33.53-42.82-3.67-12.63-2.07-24.54,4.76-35.42ZM341.63,445.38c16.59,0,33.55-1.13,50.75-3.65,164.06-24.04,138.15-130.11,40.79-149.33-5.36,2.58-42.2,19.79-101.33,36.22-76.91,21.38-162.49,33.32-248.14,32.77,31.81,21.53,134.74,83.99,257.93,83.99ZM67.95,356.77c111.16,2.67,204.12-16.11,262.57-32.35,59.78-16.6,96.59-33.99,100.95-36.09,23.91-30.24,11.82-61.21,7.68-69.76-63.91,49.3-168.79,74.16-245.94,86.35-75.06,11.86-138.98,14.35-152.67,14.77,6.48,26.02,24.66,35.74,27.41,37.08ZM6.55,274.83c4.58,15.76,15.32,29.38,31.91,40.51,7.48-.19,74.51-2.19,154.13-14.78,77.31-12.22,182.59-37.2,245.57-86.81,38.83-74.38-9.94-158.38-59.95-142.31-69.27,22.24-125.48,95.47-224.55,112.2-58.42,9.86-163.58,34.58-147.11,91.18Z"/>
          </g>
          <path class="cls-5" d="M68.84,285.06c24.08-2.09,51.58-9.18,81.72-21.06,77.74-30.64,103.46-77.35,140.15-125.42.74-.96,2.12-1.15,3.09-.41.96.74,1.15,2.12.41,3.08-37.05,48.53-63.01,95.7-142.03,126.84-30.54,12.04-58.46,19.22-82.96,21.34-1.15.11-2.27-.75-2.38-2-.1-1.21.79-2.28,2-2.38Z"/>
          <path class="cls-5" d="M381.44,108.27c22.79,0,41.34,28.04,41.34,62.49s-18.55,62.5-41.34,62.5-41.34-28.04-41.34-62.5,18.54-62.49,41.34-62.49ZM381.44,228.86c20.36,0,36.94-26.06,36.94-58.1s-16.57-58.1-36.94-58.1-36.94,26.06-36.94,58.1,16.57,58.1,36.94,58.1Z"/>
        </g>
      </g>
    </g>
  </g>
</svg>