<svg xmlns="http://www.w3.org/2000/svg" xmlns:xlink="http://www.w3.org/1999/xlink" width="1621" zoomAndPan="magnify" viewBox="0 0 1215.75 458.999989" height="612" preserveAspectRatio="xMidYMid meet" version="1.0"><defs><g/><clipPath id="203a20f240"><path d="M 0 9.886719 L 386.171875 9.886719 L 386.171875 396.054688 L 0 396.054688 Z M 0 9.886719 " clip-rule="nonzero"/></clipPath><clipPath id="6b341f02e5"><path d="M 0.304688 49 L 386.171875 49 L 386.171875 339 L 0.304688 339 Z M 0.304688 49 " clip-rule="nonzero"/></clipPath><clipPath id="43e3b604cf"><rect x="0" width="387" y="0" height="388"/></clipPath><clipPath id="57199ac8fa"><rect x="0" width="683" y="0" height="206"/></clipPath></defs><g clip-path="url(#203a20f240)"><g transform="matrix(1, 0, 0, 1, 0, 9)"><g clip-path="url(#43e3b604cf)"><path fill="#e9e9fd" d="M 52.660156 266.738281 C 52.660156 266.738281 163.339844 353.03125 294.523438 333.8125 C 425.707031 314.585938 397.753906 224.710938 313.1875 216.820312 C 264.609375 226.121094 73.105469 262.832031 52.660156 266.738281 Z M 52.660156 266.738281 " fill-opacity="1" fill-rule="nonzero"/><path fill="#d7d7fd" d="M 52.660156 266.738281 C 52.660156 266.738281 163.339844 353.03125 294.523438 333.8125 C 425.707031 314.585938 397.753906 224.710938 313.1875 216.820312 L 293.277344 220.632812 C 305.210938 224.550781 323.90625 231.804688 343.808594 243.769531 C 369.320312 267.242188 360.1875 306.855469 286.230469 317.699219 C 231.386719 325.734375 181.140625 310.132812 146.304688 293.917969 L 95.402344 266.964844 L 62.332031 264.890625 Z M 52.660156 266.738281 " fill-opacity="1" fill-rule="nonzero"/><path fill="#c8c5fd" d="M 3.328125 207.472656 C 13.578125 242.710938 60.351562 252.960938 60.351562 252.960938 L 207.707031 255.207031 L 277.386719 211.679688 C 383.578125 156.621094 335.53125 36.089844 283.15625 52.90625 C 230.773438 69.726562 188.96875 124.5 114.972656 137 C 40.96875 149.492188 -6.917969 172.230469 3.328125 207.472656 Z M 3.328125 207.472656 " fill-opacity="1" fill-rule="nonzero"/><path fill="#bdbafd" d="M 3.328125 207.472656 C 3.328125 207.472656 31.835938 232.621094 113.53125 200.425781 C 195.214844 168.230469 200.816406 112.808594 258.078125 63.878906 C 216.222656 86.527344 176.847656 126.546875 114.972656 137 C 40.96875 149.492188 -6.917969 172.230469 3.328125 207.472656 Z M 3.328125 207.472656 " fill-opacity="1" fill-rule="nonzero"/><path fill="#b2b0fd" d="M 28.351562 239.058594 C 28.351562 239.058594 237.984375 235.023438 329.917969 162.292969 C 329.917969 162.292969 346.621094 191.039062 324.667969 218.453125 C 324.667969 218.453125 212.738281 274.066406 50.578125 270.101562 C 50.578125 270.101562 33.34375 262.792969 28.351562 239.058594 Z M 28.351562 239.058594 " fill-opacity="1" fill-rule="nonzero"/><path fill="#b2b0fd" d="M 256.722656 128.957031 C 256.722656 130.4375 256.769531 131.917969 256.863281 133.390625 C 256.957031 134.863281 257.101562 136.328125 257.289062 137.78125 C 257.476562 139.234375 257.707031 140.667969 257.988281 142.085938 C 258.265625 143.503906 258.589844 144.894531 258.957031 146.265625 C 259.324219 147.632812 259.734375 148.96875 260.1875 150.277344 C 260.644531 151.582031 261.136719 152.851562 261.671875 154.082031 C 262.203125 155.3125 262.777344 156.503906 263.386719 157.648438 C 263.996094 158.792969 264.640625 159.886719 265.320312 160.9375 C 266 161.984375 266.710938 162.976562 267.457031 163.917969 C 268.199219 164.855469 268.96875 165.738281 269.769531 166.558594 C 270.570312 167.382812 271.390625 168.144531 272.238281 168.839844 C 273.085938 169.539062 273.957031 170.171875 274.84375 170.738281 C 275.730469 171.304688 276.636719 171.804688 277.554688 172.234375 C 278.476562 172.664062 279.40625 173.023438 280.351562 173.3125 C 281.292969 173.601562 282.242188 173.816406 283.199219 173.964844 C 284.15625 174.109375 285.117188 174.179688 286.078125 174.179688 C 287.039062 174.179688 287.996094 174.109375 288.953125 173.964844 C 289.910156 173.816406 290.859375 173.601562 291.804688 173.3125 C 292.746094 173.023438 293.679688 172.664062 294.597656 172.234375 C 295.519531 171.804688 296.421875 171.304688 297.308594 170.738281 C 298.199219 170.171875 299.066406 169.539062 299.914062 168.839844 C 300.761719 168.144531 301.585938 167.382812 302.386719 166.558594 C 303.183594 165.738281 303.957031 164.855469 304.699219 163.917969 C 305.441406 162.976562 306.152344 161.984375 306.832031 160.9375 C 307.511719 159.886719 308.160156 158.792969 308.769531 157.648438 C 309.378906 156.503906 309.949219 155.3125 310.484375 154.082031 C 311.019531 152.851562 311.511719 151.582031 311.964844 150.277344 C 312.417969 148.96875 312.828125 147.632812 313.195312 146.265625 C 313.566406 144.894531 313.886719 143.503906 314.167969 142.085938 C 314.445312 140.667969 314.679688 139.234375 314.867188 137.78125 C 315.054688 136.328125 315.195312 134.863281 315.289062 133.390625 C 315.382812 131.917969 315.429688 130.4375 315.429688 128.957031 C 315.429688 127.476562 315.382812 126 315.289062 124.527344 C 315.195312 123.050781 315.054688 121.589844 314.867188 120.136719 C 314.679688 118.683594 314.445312 117.246094 314.167969 115.832031 C 313.886719 114.414062 313.566406 113.019531 313.195312 111.652344 C 312.828125 110.285156 312.417969 108.945312 311.964844 107.640625 C 311.511719 106.332031 311.019531 105.066406 310.484375 103.832031 C 309.949219 102.601562 309.378906 101.414062 308.769531 100.269531 C 308.160156 99.125 307.511719 98.027344 306.832031 96.980469 C 306.152344 95.933594 305.441406 94.941406 304.699219 94 C 303.957031 93.058594 303.183594 92.179688 302.386719 91.355469 C 301.585938 90.535156 300.761719 89.773438 299.914062 89.074219 C 299.066406 88.375 298.199219 87.742188 297.308594 87.175781 C 296.421875 86.609375 295.519531 86.113281 294.597656 85.683594 C 293.679688 85.253906 292.746094 84.894531 291.804688 84.605469 C 290.859375 84.316406 289.910156 84.097656 288.953125 83.953125 C 287.996094 83.808594 287.039062 83.734375 286.078125 83.734375 C 285.117188 83.734375 284.15625 83.808594 283.199219 83.953125 C 282.242188 84.097656 281.292969 84.316406 280.351562 84.605469 C 279.40625 84.894531 278.476562 85.253906 277.554688 85.683594 C 276.636719 86.113281 275.730469 86.609375 274.84375 87.175781 C 273.957031 87.742188 273.085938 88.375 272.238281 89.074219 C 271.390625 89.773438 270.570312 90.535156 269.769531 91.355469 C 268.96875 92.179688 268.199219 93.058594 267.457031 94 C 266.710938 94.941406 266 95.933594 265.320312 96.980469 C 264.640625 98.027344 263.996094 99.125 263.386719 100.269531 C 262.777344 101.414062 262.203125 102.601562 261.671875 103.832031 C 261.136719 105.066406 260.644531 106.332031 260.1875 107.640625 C 259.734375 108.945312 259.324219 110.285156 258.957031 111.652344 C 258.589844 113.019531 258.265625 114.414062 257.988281 115.832031 C 257.707031 117.246094 257.476562 118.683594 257.289062 120.136719 C 257.101562 121.589844 256.957031 123.050781 256.863281 124.527344 C 256.769531 126 256.722656 127.476562 256.722656 128.957031 Z M 256.722656 128.957031 " fill-opacity="1" fill-rule="nonzero"/><path fill="#4200dd" d="M 147.003906 292.425781 C 179.808594 307.691406 230.550781 324.1875 285.992188 316.0625 C 323.332031 310.589844 348.042969 296.765625 353.789062 278.128906 C 357.292969 266.773438 353.246094 254.691406 342.6875 244.980469 C 342.019531 244.363281 341.972656 243.320312 342.589844 242.648438 C 343.207031 241.976562 344.253906 241.933594 344.921875 242.550781 C 371.179688 266.703125 362.40625 308.203125 286.46875 319.328125 C 238.484375 326.359375 189.402344 315.796875 145.613281 295.417969 C 144.785156 295.03125 144.425781 294.050781 144.8125 293.226562 C 145.195312 292.398438 146.179688 292.042969 147.003906 292.425781 Z M 147.003906 292.425781 " fill-opacity="1" fill-rule="nonzero"/><g clip-path="url(#6b341f02e5)"><path fill="#4200dd" d="M 5.308594 181.371094 C 18.128906 160.9375 54.933594 145.460938 114.699219 135.375 C 188.527344 122.902344 229.695312 68.335938 282.648438 51.332031 C 323.242188 38.304688 361.761719 104.132812 331.777344 162.28125 C 334.226562 167.113281 345.621094 192.628906 327.5625 217.371094 C 402.664062 233.601562 420.199219 317.066406 294.761719 335.445312 C 242.644531 343.078125 190.449219 334.84375 140.617188 315.875 C 98.835938 299.972656 68.414062 280.015625 56.878906 271.867188 C 50.027344 271.765625 50.308594 271.777344 49.9375 271.621094 C 49.207031 271.3125 32.171875 263.828125 26.886719 240.050781 C 13.855469 231.273438 5.390625 220.472656 1.742188 207.933594 C -1.007812 198.464844 0.191406 189.53125 5.308594 181.371094 Z M 256.222656 334.917969 C 268.664062 334.917969 281.386719 334.070312 294.285156 332.179688 C 417.332031 314.148438 397.894531 234.59375 324.875 220.183594 C 320.851562 222.117188 293.226562 235.027344 248.875 247.351562 C 191.195312 263.382812 127.007812 272.339844 62.773438 271.925781 C 86.632812 288.074219 163.832031 334.921875 256.222656 334.917969 Z M 50.964844 268.460938 C 134.332031 270.460938 204.054688 256.375 247.894531 244.199219 C 292.730469 231.75 320.339844 218.707031 323.609375 217.132812 C 341.539062 194.449219 332.472656 171.226562 329.371094 164.816406 C 281.4375 201.792969 202.777344 220.433594 144.914062 229.578125 C 88.621094 238.476562 40.679688 240.34375 30.410156 240.652344 C 35.269531 260.167969 48.902344 267.457031 50.964844 268.460938 Z M 4.914062 207.011719 C 8.347656 218.828125 16.402344 229.046875 28.847656 237.394531 C 34.457031 237.253906 84.726562 235.753906 144.445312 226.3125 C 202.425781 217.144531 281.390625 198.410156 328.621094 161.207031 C 357.746094 105.421875 321.167969 42.425781 283.660156 54.476562 C 231.710938 71.15625 189.546875 126.078125 115.25 138.625 C 71.433594 146.023438 -7.433594 164.558594 4.914062 207.011719 Z M 4.914062 207.011719 " fill-opacity="1" fill-rule="nonzero"/></g><path fill="#4200dd" d="M 51.628906 214.683594 C 69.6875 213.117188 90.3125 207.800781 112.921875 198.890625 C 171.226562 175.910156 190.515625 140.875 218.03125 104.824219 C 218.585938 104.101562 219.621094 103.960938 220.347656 104.515625 C 221.070312 105.070312 221.210938 106.105469 220.65625 106.828125 C 192.871094 143.222656 173.398438 178.605469 114.132812 201.960938 C 91.226562 210.988281 70.289062 216.375 51.914062 217.96875 C 51.050781 218.054688 50.210938 217.40625 50.128906 216.46875 C 50.050781 215.558594 50.722656 214.761719 51.628906 214.683594 Z M 51.628906 214.683594 " fill-opacity="1" fill-rule="nonzero"/><path fill="#4200dd" d="M 286.078125 82.085938 C 303.171875 82.085938 317.082031 103.113281 317.082031 128.957031 C 317.082031 154.804688 303.171875 175.832031 286.078125 175.832031 C 268.980469 175.832031 255.074219 154.804688 255.074219 128.957031 C 255.074219 103.113281 268.980469 82.085938 286.078125 82.085938 Z M 286.078125 172.53125 C 301.351562 172.53125 313.78125 152.984375 313.78125 128.957031 C 313.78125 104.929688 301.351562 85.382812 286.078125 85.382812 C 270.800781 85.382812 258.375 104.929688 258.375 128.957031 C 258.375 152.984375 270.800781 172.53125 286.078125 172.53125 Z M 286.078125 172.53125 " fill-opacity="1" fill-rule="nonzero"/></g></g></g><g transform="matrix(1, 0, 0, 1, 419, 109)"><g clip-path="url(#57199ac8fa)"><g fill="#4809df" fill-opacity="1"><g transform="translate(1.008419, 154.206397)"><g><path d="M 58.609375 3.03125 C 51.117188 3.03125 44.210938 1.644531 37.890625 -1.125 C 31.578125 -3.894531 26.09375 -7.71875 21.4375 -12.59375 C 16.78125 -17.476562 13.164062 -23.144531 10.59375 -29.59375 C 8.019531 -36.039062 6.734375 -42.910156 6.734375 -50.203125 C 6.734375 -57.492188 8.019531 -64.347656 10.59375 -70.765625 C 13.164062 -77.179688 16.78125 -82.847656 21.4375 -87.765625 C 26.09375 -92.679688 31.578125 -96.519531 37.890625 -99.28125 C 44.210938 -102.050781 51.117188 -103.4375 58.609375 -103.4375 C 67.265625 -103.4375 74.992188 -101.757812 81.796875 -98.40625 C 88.609375 -95.050781 94.304688 -90.476562 98.890625 -84.6875 C 103.484375 -78.894531 106.726562 -72.316406 108.625 -64.953125 L 84.5 -64.953125 C 82.28125 -70.554688 78.859375 -74.707031 74.234375 -77.40625 C 69.609375 -80.113281 64.429688 -81.46875 58.703125 -81.46875 C 55.054688 -81.46875 51.539062 -80.765625 48.15625 -79.359375 C 44.769531 -77.960938 41.722656 -75.925781 39.015625 -73.25 C 36.316406 -70.582031 34.171875 -67.3125 32.578125 -63.4375 C 30.984375 -59.5625 30.1875 -55.148438 30.1875 -50.203125 C 30.1875 -45.253906 30.984375 -40.84375 32.578125 -36.96875 C 34.171875 -33.09375 36.316406 -29.800781 39.015625 -27.09375 C 41.722656 -24.394531 44.785156 -22.347656 48.203125 -20.953125 C 51.617188 -19.554688 55.117188 -18.859375 58.703125 -18.859375 C 64.429688 -18.859375 69.609375 -20.269531 74.234375 -23.09375 C 78.859375 -25.925781 82.28125 -30.472656 84.5 -36.734375 L 108.515625 -36.734375 C 106.828125 -28.984375 103.671875 -22.109375 99.046875 -16.109375 C 94.421875 -10.117188 88.671875 -5.429688 81.796875 -2.046875 C 74.929688 1.335938 67.203125 3.03125 58.609375 3.03125 Z M 58.609375 3.03125 "/></g></g></g><g fill="#4809df" fill-opacity="1"><g transform="translate(101.598116, 154.206397)"><g><path d="M 54.015625 3.03125 C 47.242188 3.03125 40.972656 1.664062 35.203125 -1.0625 C 29.441406 -3.800781 24.425781 -7.613281 20.15625 -12.5 C 15.894531 -17.382812 12.59375 -23.050781 10.25 -29.5 C 7.90625 -35.945312 6.734375 -42.847656 6.734375 -50.203125 C 6.734375 -57.566406 7.921875 -64.453125 10.296875 -70.859375 C 12.679688 -77.273438 16.003906 -82.925781 20.265625 -87.8125 C 24.535156 -92.695312 29.535156 -96.519531 35.265625 -99.28125 C 40.992188 -102.050781 47.210938 -103.4375 53.921875 -103.4375 C 62.117188 -103.4375 69.410156 -101.660156 75.796875 -98.109375 C 82.179688 -94.566406 86.96875 -89.671875 90.15625 -83.421875 L 90.15625 -100.421875 L 112.625 -100.421875 L 112.625 0 L 90.15625 0 L 90.15625 -16.90625 C 86.90625 -10.644531 82.101562 -5.753906 75.75 -2.234375 C 69.394531 1.273438 62.148438 3.03125 54.015625 3.03125 Z M 59.6875 -18.859375 C 63.78125 -18.859375 67.617188 -19.65625 71.203125 -21.25 C 74.785156 -22.84375 77.925781 -25.054688 80.625 -27.890625 C 83.332031 -30.722656 85.4375 -34.039062 86.9375 -37.84375 C 88.4375 -41.65625 89.1875 -45.773438 89.1875 -50.203125 C 89.1875 -54.566406 88.421875 -58.65625 86.890625 -62.46875 C 85.359375 -66.28125 83.253906 -69.617188 80.578125 -72.484375 C 77.910156 -75.347656 74.785156 -77.578125 71.203125 -79.171875 C 67.617188 -80.765625 63.78125 -81.5625 59.6875 -81.5625 C 54.28125 -81.5625 49.34375 -80.257812 44.875 -77.65625 C 40.414062 -75.050781 36.851562 -71.40625 34.1875 -66.71875 C 31.519531 -62.03125 30.1875 -56.523438 30.1875 -50.203125 C 30.1875 -43.691406 31.535156 -38.09375 34.234375 -33.40625 C 36.941406 -28.71875 40.539062 -25.117188 45.03125 -22.609375 C 49.519531 -20.109375 54.40625 -18.859375 59.6875 -18.859375 Z M 59.6875 -18.859375 "/></g></g></g><g fill="#4809df" fill-opacity="1"><g transform="translate(214.885961, 154.206397)"><g><path d="M 37.515625 34.28125 L 13.875 34.28125 L 13.875 -100.421875 L 36.34375 -100.421875 L 36.34375 -83.515625 C 39.988281 -89.566406 44.835938 -94.382812 50.890625 -97.96875 C 56.941406 -101.550781 63.582031 -103.34375 70.8125 -103.34375 C 77.976562 -103.34375 84.539062 -101.957031 90.5 -99.1875 C 96.457031 -96.425781 101.617188 -92.617188 105.984375 -87.765625 C 110.347656 -82.910156 113.734375 -77.273438 116.140625 -70.859375 C 118.546875 -64.453125 119.75 -57.566406 119.75 -50.203125 C 119.75 -42.847656 118.546875 -35.945312 116.140625 -29.5 C 113.734375 -23.050781 110.332031 -17.382812 105.9375 -12.5 C 101.539062 -7.613281 96.394531 -3.800781 90.5 -1.0625 C 84.601562 1.664062 78.140625 3.03125 71.109375 3.03125 C 66.222656 3.03125 61.597656 2.226562 57.234375 0.625 C 52.878906 -0.96875 48.972656 -3.210938 45.515625 -6.109375 C 42.066406 -9.003906 39.234375 -12.375 37.015625 -16.21875 L 37.515625 -4.59375 Z M 66.8125 -18.75 C 72.15625 -18.75 77.054688 -20.019531 81.515625 -22.5625 C 85.972656 -25.101562 89.550781 -28.734375 92.25 -33.453125 C 94.957031 -38.171875 96.3125 -43.753906 96.3125 -50.203125 C 96.3125 -56.523438 94.972656 -62.03125 92.296875 -66.71875 C 89.628906 -71.40625 86.066406 -75.050781 81.609375 -77.65625 C 77.148438 -80.257812 72.1875 -81.5625 66.71875 -81.5625 C 62.613281 -81.5625 58.785156 -80.765625 55.234375 -79.171875 C 51.679688 -77.578125 48.554688 -75.347656 45.859375 -72.484375 C 43.160156 -69.617188 41.046875 -66.296875 39.515625 -62.515625 C 37.984375 -58.734375 37.21875 -54.628906 37.21875 -50.203125 C 37.21875 -45.648438 38 -41.453125 39.5625 -37.609375 C 41.125 -33.765625 43.269531 -30.425781 46 -27.59375 C 48.738281 -24.757812 51.898438 -22.578125 55.484375 -21.046875 C 59.066406 -19.515625 62.84375 -18.75 66.8125 -18.75 Z M 66.8125 -18.75 "/></g></g></g><g fill="#4809df" fill-opacity="1"><g transform="translate(328.173805, 154.206397)"><g><path d="M 75.609375 0 L 55.1875 0 C 52.195312 0 49.117188 -0.273438 45.953125 -0.828125 C 42.796875 -1.378906 39.785156 -2.40625 36.921875 -3.90625 C 34.054688 -5.40625 31.5 -7.570312 29.25 -10.40625 C 27.007812 -13.238281 25.21875 -16.914062 23.875 -21.4375 C 22.539062 -25.96875 21.875 -31.550781 21.875 -38.1875 L 21.875 -80.09375 L 1.078125 -80.09375 L 1.078125 -100.421875 L 21.875 -100.421875 L 21.875 -129.8125 L 45.515625 -130.015625 L 45.515625 -100.421875 L 75.609375 -100.421875 L 75.609375 -80.09375 L 45.515625 -80.09375 L 45.515625 -37.125 C 45.515625 -32.425781 46.195312 -28.804688 47.5625 -26.265625 C 48.9375 -23.734375 50.742188 -21.992188 52.984375 -21.046875 C 55.234375 -20.109375 57.597656 -19.640625 60.078125 -19.640625 L 75.609375 -19.640625 Z M 75.609375 0 "/></g></g></g><g fill="#4809df" fill-opacity="1"><g transform="translate(395.845996, 154.206397)"><g><path d="M 54.015625 3.03125 C 47.242188 3.03125 40.972656 1.664062 35.203125 -1.0625 C 29.441406 -3.800781 24.425781 -7.613281 20.15625 -12.5 C 15.894531 -17.382812 12.59375 -23.050781 10.25 -29.5 C 7.90625 -35.945312 6.734375 -42.847656 6.734375 -50.203125 C 6.734375 -57.566406 7.921875 -64.453125 10.296875 -70.859375 C 12.679688 -77.273438 16.003906 -82.925781 20.265625 -87.8125 C 24.535156 -92.695312 29.535156 -96.519531 35.265625 -99.28125 C 40.992188 -102.050781 47.210938 -103.4375 53.921875 -103.4375 C 62.117188 -103.4375 69.410156 -101.660156 75.796875 -98.109375 C 82.179688 -94.566406 86.96875 -89.671875 90.15625 -83.421875 L 90.15625 -100.421875 L 112.625 -100.421875 L 112.625 0 L 90.15625 0 L 90.15625 -16.90625 C 86.90625 -10.644531 82.101562 -5.753906 75.75 -2.234375 C 69.394531 1.273438 62.148438 3.03125 54.015625 3.03125 Z M 59.6875 -18.859375 C 63.78125 -18.859375 67.617188 -19.65625 71.203125 -21.25 C 74.785156 -22.84375 77.925781 -25.054688 80.625 -27.890625 C 83.332031 -30.722656 85.4375 -34.039062 86.9375 -37.84375 C 88.4375 -41.65625 89.1875 -45.773438 89.1875 -50.203125 C 89.1875 -54.566406 88.421875 -58.65625 86.890625 -62.46875 C 85.359375 -66.28125 83.253906 -69.617188 80.578125 -72.484375 C 77.910156 -75.347656 74.785156 -77.578125 71.203125 -79.171875 C 67.617188 -80.765625 63.78125 -81.5625 59.6875 -81.5625 C 54.28125 -81.5625 49.34375 -80.257812 44.875 -77.65625 C 40.414062 -75.050781 36.851562 -71.40625 34.1875 -66.71875 C 31.519531 -62.03125 30.1875 -56.523438 30.1875 -50.203125 C 30.1875 -43.691406 31.535156 -38.09375 34.234375 -33.40625 C 36.941406 -28.71875 40.539062 -25.117188 45.03125 -22.609375 C 49.519531 -20.109375 54.40625 -18.859375 59.6875 -18.859375 Z M 59.6875 -18.859375 "/></g></g></g><g fill="#4809df" fill-opacity="1"><g transform="translate(509.133841, 154.206397)"><g><path d="M 25.5 -116.046875 C 20.9375 -116.046875 17.367188 -117.363281 14.796875 -120 C 12.222656 -122.632812 10.9375 -125.84375 10.9375 -129.625 C 10.9375 -133.269531 12.222656 -136.425781 14.796875 -139.09375 C 17.367188 -141.757812 20.96875 -143.09375 25.59375 -143.09375 C 30.34375 -143.09375 34.003906 -141.757812 36.578125 -139.09375 C 39.148438 -136.425781 40.4375 -133.269531 40.4375 -129.625 C 40.4375 -125.84375 39.148438 -122.632812 36.578125 -120 C 34.003906 -117.363281 30.3125 -116.046875 25.5 -116.046875 Z M 37.515625 0 L 13.875 0 L 13.875 -100.421875 L 37.515625 -100.421875 Z M 37.515625 0 "/></g></g></g><g fill="#4809df" fill-opacity="1"><g transform="translate(547.20958, 154.206397)"><g><path d="M 37.515625 0 L 13.875 0 L 13.875 -100.421875 L 36.34375 -100.421875 L 36.34375 -84.78125 C 38.289062 -88.425781 40.957031 -91.648438 44.34375 -94.453125 C 47.726562 -97.253906 51.664062 -99.453125 56.15625 -101.046875 C 60.65625 -102.640625 65.476562 -103.4375 70.625 -103.4375 C 84.101562 -103.4375 94.195312 -99.15625 100.90625 -90.59375 C 107.613281 -82.03125 110.96875 -69.867188 110.96875 -54.109375 L 110.96875 0 L 87.328125 0 L 87.328125 -53.625 C 87.328125 -63.59375 85.242188 -70.753906 81.078125 -75.109375 C 76.910156 -79.472656 71.242188 -81.65625 64.078125 -81.65625 C 59.453125 -81.65625 55.117188 -80.484375 51.078125 -78.140625 C 47.046875 -75.796875 43.773438 -72.375 41.265625 -67.875 C 38.765625 -63.382812 37.515625 -57.851562 37.515625 -51.28125 Z M 37.515625 0 "/></g></g></g></g></g></svg>