<?xml version="1.0" encoding="UTF-8"?>
<svg id="Layer_2" data-name="Layer 2" xmlns="http://www.w3.org/2000/svg" xmlns:xlink="http://www.w3.org/1999/xlink" viewBox="0 0 1469.33 514.89">
  <defs>
    <style>
      .cls-1 {
        clip-path: url(#clippath);
      }

      .cls-2 {
        fill: none;
      }

      .cls-2, .cls-3, .cls-4, .cls-5 {
        stroke-width: 0px;
      }

      .cls-3 {
        fill: #cbfcc8;
      }

      .cls-6 {
        clip-path: url(#clippath-1);
      }

      .cls-7 {
        clip-path: url(#clippath-3);
      }

      .cls-8 {
        clip-path: url(#clippath-2);
      }

      .cls-4 {
        fill: #4cdd7f;
      }

      .cls-5 {
        fill: #1c3728;
      }
    </style>
    <clipPath id="clippath">
      <rect class="cls-2" width="514.9" height="514.89"/>
    </clipPath>
    <clipPath id="clippath-1">
      <rect class="cls-2" y="-1.18" width="516" height="517.33"/>
    </clipPath>
    <clipPath id="clippath-2">
      <rect class="cls-2" x=".41" y="64.15" width="514.49" height="386.67"/>
    </clipPath>
    <clipPath id="clippath-3">
      <rect class="cls-2" x="558.67" y="132.15" width="910.67" height="274.67"/>
    </clipPath>
  </defs>
  <g id="Layer_1-2" data-name="Layer 1">
    <g class="cls-1">
      <g class="cls-6">
        <g>
          <path class="cls-3" d="M70.21,354.47s147.57,115.06,322.48,89.43c174.91-25.64,137.64-145.47,24.89-155.99-64.77,12.4-320.11,61.35-347.37,66.56Z"/>
          <path class="cls-4" d="M70.21,354.47s147.57,115.06,322.48,89.43c174.91-25.64,137.64-145.47,24.89-155.99l-26.55,5.08c15.91,5.22,40.84,14.9,67.38,30.85,34.02,31.3,21.84,84.11-76.77,98.57-73.13,10.71-140.12-10.09-186.57-31.71l-67.87-35.94-44.09-2.77-12.9,2.46Z"/>
          <path class="cls-3" d="M4.44,275.45c13.67,46.98,76.03,60.65,76.03,60.65l196.47,2.99,92.91-58.04c141.59-73.41,77.53-234.12,7.69-211.7-69.84,22.43-125.58,95.46-224.24,112.13C54.63,198.14-9.22,228.46,4.44,275.45Z"/>
          <path class="cls-4" d="M4.44,275.45s38.01,33.53,146.94-9.4c108.91-42.93,116.38-116.82,192.73-182.06-55.81,30.2-108.31,83.56-190.81,97.49C54.63,198.14-9.22,228.46,4.44,275.45Z"/>
          <path class="cls-4" d="M37.8,317.56s279.51-5.38,402.09-102.35c0,0,22.27,38.33-7,74.88,0,0-149.24,74.15-365.45,68.86,0,0-22.98-9.74-29.64-41.39Z"/>
          <path class="cls-4" d="M342.3,170.76c0,1.97.06,3.95.19,5.91s.32,3.92.57,5.85.56,3.85.93,5.74c.37,1.89.8,3.74,1.29,5.57.49,1.82,1.04,3.6,1.64,5.35.61,1.74,1.27,3.43,1.98,5.07.71,1.64,1.47,3.23,2.29,4.76s1.67,2.98,2.58,4.39c.91,1.4,1.85,2.72,2.85,3.97.99,1.25,2.02,2.43,3.08,3.52,1.07,1.1,2.16,2.11,3.29,3.04,1.13.93,2.29,1.78,3.47,2.53s2.39,1.42,3.61,1.99c1.23.57,2.47,1.05,3.73,1.44,1.26.39,2.52.67,3.8.87,1.28.19,2.56.29,3.84.29s2.56-.09,3.83-.29c1.28-.2,2.54-.48,3.8-.87,1.26-.39,2.5-.86,3.72-1.44,1.23-.57,2.43-1.24,3.61-1.99,1.19-.76,2.34-1.6,3.47-2.53,1.13-.93,2.23-1.94,3.3-3.04,1.06-1.09,2.09-2.27,3.08-3.52.99-1.26,1.94-2.58,2.84-3.97.91-1.4,1.77-2.86,2.58-4.39s1.57-3.11,2.29-4.76,1.37-3.33,1.97-5.07c.6-1.74,1.15-3.53,1.64-5.35.49-1.83.92-3.68,1.3-5.57.37-1.89.68-3.8.93-5.74s.44-3.89.56-5.85.19-3.94.19-5.91-.06-3.94-.19-5.91c-.13-1.97-.31-3.92-.56-5.85s-.56-3.85-.93-5.74c-.38-1.89-.8-3.75-1.3-5.57-.49-1.82-1.04-3.61-1.64-5.35-.6-1.74-1.26-3.43-1.97-5.08-.71-1.64-1.47-3.22-2.29-4.75s-1.68-2.99-2.58-4.39-1.85-2.72-2.84-3.97-2.02-2.43-3.08-3.53c-1.07-1.09-2.17-2.11-3.3-3.04s-2.29-1.78-3.47-2.53c-1.18-.76-2.39-1.42-3.61-1.99-1.22-.57-2.47-1.05-3.72-1.44-1.26-.39-2.53-.68-3.8-.87s-2.55-.29-3.83-.29-2.56.1-3.84.29-2.54.48-3.8.87c-1.26.39-2.5.86-3.73,1.44-1.22.57-2.43,1.23-3.61,1.99s-2.34,1.6-3.47,2.53-2.22,1.95-3.29,3.04c-1.07,1.1-2.09,2.27-3.08,3.53-.99,1.26-1.94,2.58-2.85,3.97s-1.77,2.86-2.58,4.39-1.58,3.11-2.29,4.75c-.71,1.65-1.37,3.33-1.98,5.08-.6,1.74-1.15,3.53-1.64,5.35s-.92,3.68-1.29,5.57c-.38,1.89-.68,3.8-.93,5.74s-.44,3.89-.57,5.85c-.13,1.96-.19,3.93-.19,5.91Z"/>
          <path class="cls-5" d="M196.01,388.72c43.74,20.35,111.4,42.35,185.32,31.52,49.79-7.3,82.73-25.73,90.4-50.58,4.67-15.14-.72-31.25-14.8-44.2-.89-.82-.95-2.21-.13-3.11s2.22-.95,3.11-.13c35.01,32.2,23.31,87.54-77.94,102.37-63.98,9.38-129.42-4.71-187.81-31.88-1.1-.52-1.58-1.82-1.07-2.92.51-1.1,1.82-1.58,2.92-1.07Z"/>
          <g class="cls-8">
            <path class="cls-5" d="M7.08,240.65c17.09-27.24,66.17-47.88,145.85-61.33,98.44-16.63,153.33-89.39,223.93-112.06,54.13-17.37,105.48,70.4,65.51,147.93,3.27,6.44,18.46,40.46-5.62,73.45,100.14,21.64,123.52,132.93-43.73,157.43-69.49,10.18-139.08-.8-205.53-26.09-55.71-21.2-96.27-47.81-111.65-58.68-9.14-.14-8.76-.12-9.26-.33-.97-.41-23.69-10.39-30.73-42.09-17.38-11.7-28.66-26.1-33.53-42.82-3.67-12.63-2.07-24.54,4.76-35.42ZM341.63,445.38c16.59,0,33.55-1.13,50.75-3.65,164.06-24.04,138.15-130.11,40.79-149.33-5.36,2.58-42.2,19.79-101.33,36.22-76.91,21.38-162.49,33.32-248.14,32.77,31.81,21.53,134.74,83.99,257.93,83.99ZM67.95,356.77c111.16,2.67,204.12-16.11,262.57-32.35,59.78-16.6,96.59-33.99,100.95-36.09,23.91-30.24,11.82-61.21,7.68-69.76-63.91,49.3-168.79,74.16-245.94,86.35-75.06,11.86-138.98,14.35-152.67,14.77,6.48,26.02,24.66,35.74,27.41,37.08ZM6.55,274.83c4.58,15.76,15.32,29.38,31.91,40.51,7.48-.19,74.51-2.19,154.13-14.78,77.31-12.22,182.59-37.2,245.57-86.81,38.83-74.38-9.94-158.38-59.95-142.31-69.27,22.24-125.48,95.47-224.55,112.2-58.42,9.86-163.58,34.58-147.11,91.18Z"/>
          </g>
          <path class="cls-5" d="M68.84,285.06c24.08-2.09,51.58-9.18,81.72-21.06,77.74-30.64,103.46-77.35,140.15-125.42.74-.96,2.12-1.15,3.09-.41.96.74,1.15,2.12.41,3.08-37.05,48.53-63.01,95.7-142.03,126.84-30.54,12.04-58.46,19.22-82.96,21.34-1.15.11-2.27-.75-2.38-2-.1-1.21.79-2.28,2-2.38Z"/>
          <path class="cls-5" d="M381.44,108.27c22.79,0,41.34,28.04,41.34,62.49s-18.55,62.5-41.34,62.5-41.34-28.04-41.34-62.5,18.54-62.49,41.34-62.49ZM381.44,228.86c20.36,0,36.94-26.06,36.94-58.1s-16.57-58.1-36.94-58.1-36.94,26.06-36.94,58.1,16.57,58.1,36.94,58.1Z"/>
        </g>
      </g>
    </g>
    <g class="cls-7">
      <g>
        <path class="cls-4" d="M638.16,341.8c-9.99,0-19.2-1.85-27.63-5.54-8.42-3.69-15.73-8.79-21.94-15.29-6.21-6.51-11.03-14.07-14.46-22.67-3.43-8.59-5.15-17.76-5.15-27.48s1.71-18.86,5.15-27.42c3.43-8.55,8.25-16.11,14.46-22.67,6.21-6.55,13.52-11.67,21.94-15.35,8.43-3.69,17.64-5.54,27.63-5.54,11.54,0,21.84,2.24,30.92,6.71,9.08,4.47,16.68,10.57,22.79,18.29,6.13,7.72,10.45,16.49,12.98,26.31h-32.17c-2.96-7.47-7.52-13.01-13.69-16.6-6.17-3.61-13.07-5.42-20.71-5.42-4.86,0-9.55.94-14.06,2.81-4.52,1.86-8.58,4.58-12.19,8.15-3.6,3.56-6.46,7.92-8.58,13.08s-3.19,11.05-3.19,17.65,1.06,12.48,3.19,17.65,4.98,9.56,8.58,13.17c3.61,3.6,7.69,6.33,12.25,8.19,4.55,1.86,9.22,2.79,14,2.79,7.64,0,14.54-1.88,20.71-5.65,6.17-3.78,10.73-9.84,13.69-18.19h32.02c-2.25,10.33-6.46,19.5-12.63,27.5-6.17,7.99-13.83,14.24-23,18.75-9.16,4.51-19.46,6.77-30.92,6.77Z"/>
        <path class="cls-4" d="M766.15,341.8c-9.03,0-17.39-1.82-25.08-5.46-7.68-3.65-14.37-8.73-20.06-15.25-5.68-6.51-10.08-14.07-13.21-22.67-3.13-8.59-4.69-17.8-4.69-27.6s1.58-19,4.75-27.54c3.18-8.55,7.61-16.09,13.29-22.6,5.69-6.51,12.36-11.61,20-15.29,7.64-3.69,15.93-5.54,24.88-5.54,10.93,0,20.65,2.37,29.17,7.1,8.51,4.72,14.9,11.25,19.15,19.58v-22.67h29.96v133.9h-29.96v-22.54c-4.33,8.35-10.74,14.87-19.21,19.56-8.47,4.68-18.14,7.02-28.98,7.02ZM773.71,312.61c5.46,0,10.57-1.06,15.35-3.19,4.78-2.13,8.96-5.07,12.56-8.85,3.61-3.78,6.42-8.2,8.42-13.27,2-5.08,3-10.57,3-16.48s-1.02-11.27-3.06-16.35-4.85-9.53-8.42-13.35c-3.56-3.82-7.72-6.79-12.5-8.92-4.78-2.13-9.9-3.19-15.35-3.19-7.21,0-13.79,1.74-19.75,5.21-5.95,3.47-10.7,8.33-14.25,14.58-3.56,6.25-5.33,13.59-5.33,22.02s1.8,16.15,5.4,22.4c3.61,6.25,8.41,11.05,14.4,14.4,5.98,3.33,12.5,5,19.54,5Z"/>
        <path class="cls-4" d="M895.2,383.47h-31.52v-179.6h29.96v22.54c4.86-8.07,11.32-14.49,19.4-19.27,8.07-4.78,16.92-7.17,26.56-7.17s18.3,1.85,26.25,5.54c7.94,3.68,14.82,8.76,20.65,15.23,5.82,6.47,10.33,13.99,13.54,22.54,3.21,8.54,4.81,17.72,4.81,27.54s-1.6,19.01-4.81,27.6c-3.21,8.6-7.74,16.16-13.6,22.67-5.86,6.52-12.72,11.6-20.58,15.25-7.86,3.64-16.48,5.46-25.85,5.46-6.52,0-12.68-1.07-18.5-3.21-5.81-2.13-11.02-5.11-15.63-8.98-4.6-3.86-8.38-8.35-11.33-13.48l.67,15.5v51.83ZM934.26,312.76c7.13,0,13.66-1.69,19.6-5.08,5.94-3.39,10.71-8.23,14.31-14.52,3.61-6.29,5.42-13.73,5.42-22.33s-1.79-15.77-5.35-22.02c-3.56-6.25-8.31-11.11-14.25-14.58-5.95-3.47-12.56-5.21-19.85-5.21-5.47,0-10.58,1.06-15.31,3.19-4.74,2.13-8.91,5.1-12.5,8.92-3.6,3.82-6.42,8.25-8.46,13.29s-3.06,10.52-3.06,16.42,1.04,11.67,3.13,16.79,4.94,9.58,8.58,13.35c3.65,3.78,7.86,6.69,12.65,8.73,4.78,2.04,9.81,3.06,15.1,3.06Z"/>
        <path class="cls-4" d="M1097.04,337.76h-27.23c-3.99,0-8.09-.36-12.31-1.1-4.21-.73-8.22-2.1-12.04-4.1-3.82-2-7.23-4.89-10.23-8.67-2.99-3.78-5.38-8.68-7.17-14.71-1.78-6.04-2.67-13.48-2.67-22.33v-55.88h-27.73v-27.1h27.73v-39.19l31.52-.27v39.46h40.13v27.1h-40.13v57.29c0,6.27.91,11.09,2.73,14.48,1.83,3.38,4.24,5.7,7.23,6.96,3,1.25,6.15,1.88,9.46,1.88h20.71v26.19Z"/>
        <path class="cls-4" d="M1158.48,341.8c-9.03,0-17.39-1.82-25.08-5.46-7.68-3.65-14.37-8.73-20.06-15.25-5.68-6.51-10.08-14.07-13.21-22.67-3.13-8.59-4.69-17.8-4.69-27.6s1.58-19,4.75-27.54c3.18-8.55,7.61-16.09,13.29-22.6,5.69-6.51,12.36-11.61,20-15.29,7.64-3.69,15.93-5.54,24.88-5.54,10.93,0,20.65,2.37,29.17,7.1,8.51,4.72,14.9,11.25,19.15,19.58v-22.67h29.96v133.9h-29.96v-22.54c-4.33,8.35-10.74,14.87-19.21,19.56-8.47,4.68-18.14,7.02-28.98,7.02ZM1166.04,312.61c5.46,0,10.57-1.06,15.35-3.19,4.78-2.13,8.96-5.07,12.56-8.85,3.61-3.78,6.42-8.2,8.42-13.27,2-5.08,3-10.57,3-16.48s-1.02-11.27-3.06-16.35-4.85-9.53-8.42-13.35c-3.56-3.82-7.72-6.79-12.5-8.92-4.78-2.13-9.9-3.19-15.35-3.19-7.21,0-13.79,1.74-19.75,5.21-5.95,3.47-10.7,8.33-14.25,14.58-3.56,6.25-5.33,13.59-5.33,22.02s1.8,16.15,5.4,22.4c3.61,6.25,8.41,11.05,14.4,14.4,5.98,3.33,12.5,5,19.54,5Z"/>
        <path class="cls-4" d="M1271.51,183.03c-6.08,0-10.84-1.76-14.27-5.27-3.43-3.51-5.15-7.79-5.15-12.83s1.71-9.07,5.15-12.63c3.43-3.55,8.23-5.33,14.4-5.33s11.21,1.78,14.65,5.33c3.43,3.56,5.15,7.77,5.15,12.63s-1.72,9.32-5.15,12.83c-3.43,3.52-8.35,5.27-14.77,5.27ZM1287.53,337.76h-31.52v-133.9h31.52v133.9Z"/>
        <path class="cls-4" d="M1338.3,337.76h-31.52v-133.9h29.96v20.85c2.59-4.86,6.15-9.16,10.67-12.9,4.51-3.73,9.76-6.67,15.75-8.79,6-2.13,12.43-3.19,19.29-3.19,17.97,0,31.43,5.71,40.38,17.13,8.94,11.42,13.42,27.64,13.42,48.65v72.15h-31.52v-71.5c0-13.29-2.78-22.84-8.33-28.65-5.56-5.82-13.11-8.73-22.67-8.73-6.17,0-11.95,1.56-17.33,4.69-5.38,3.13-9.74,7.69-13.08,13.69-3.33,5.99-5,13.36-5,22.13v68.38Z"/>
      </g>
    </g>
  </g>
</svg>