<?xml version="1.0" encoding="UTF-8"?>
<svg id="Layer_2" data-name="Layer 2" xmlns="http://www.w3.org/2000/svg" xmlns:xlink="http://www.w3.org/1999/xlink" viewBox="0 0 514.9 514.89">
  <defs>
    <style>
      .cls-1 {
        clip-path: url(#clippath);
      }

      .cls-2 {
        fill: none;
      }

      .cls-2, .cls-3, .cls-4, .cls-5, .cls-6, .cls-7 {
        stroke-width: 0px;
      }

      .cls-3 {
        fill: #3e3e7a;
      }

      .cls-8 {
        clip-path: url(#clippath-1);
      }

      .cls-9 {
        clip-path: url(#clippath-4);
      }

      .cls-10 {
        clip-path: url(#clippath-3);
      }

      .cls-11 {
        clip-path: url(#clippath-2);
      }

      .cls-4 {
        fill: #f0e3e7;
      }

      .cls-5 {
        fill: #ffe262;
      }

      .cls-6 {
        fill: #51518e;
      }

      .cls-7 {
        fill: #fcf4f6;
      }
    </style>
    <clipPath id="clippath">
      <rect class="cls-2" width="514.9" height="514.89"/>
    </clipPath>
    <clipPath id="clippath-1">
      <rect class="cls-2" y="-1.18" width="516" height="517.33"/>
    </clipPath>
    <clipPath id="clippath-2">
      <rect class="cls-2" x="68" y="288.15" width="446.9" height="161.33"/>
    </clipPath>
    <clipPath id="clippath-3">
      <rect class="cls-2" x=".41" y="65.48" width="456.93" height="274.67"/>
    </clipPath>
    <clipPath id="clippath-4">
      <rect class="cls-2" x=".41" y="81.48" width="344.93" height="208"/>
    </clipPath>
  </defs>
  <g id="Layer_1-2" data-name="Layer 1">
    <g class="cls-1">
      <g class="cls-8">
        <g>
          <g class="cls-11">
            <g>
              <path class="cls-6" d="M68.61,355.33s148.85,116.05,325.28,90.21c176.43-25.85,138.83-146.73,25.1-157.34l-26.78,5.13-310.6,59.53-13.01,2.48Z"/>
              <path class="cls-3" d="M68.61,355.33s148.85,116.05,325.28,90.21c176.43-25.85,138.83-146.73,25.1-157.34l-26.78,5.13c16.05,5.28,41.19,15.03,67.96,31.12,34.31,31.57,22.03,84.84-77.43,99.43-73.77,10.81-141.34-10.18-188.19-31.98l-68.46-36.26-44.47-2.79-13.01,2.48Z"/>
            </g>
          </g>
          <g class="cls-10">
            <path class="cls-7" d="M2.26,275.62c13.78,47.4,76.69,61.18,76.69,61.18l198.18,3.02,93.71-58.54c142.81-74.05,78.2-236.15,7.76-213.54-11.54,3.7-22.69,8.78-33.72,14.76-56.3,30.46-109.25,84.28-192.46,98.34C52.89,197.65-11.52,228.22,2.26,275.62Z"/>
          </g>
          <g class="cls-9">
            <path class="cls-4" d="M2.26,275.62s38.34,33.82,148.21-9.47c109.86-43.3,117.4-117.84,194.41-183.65-56.3,30.46-109.25,84.28-192.46,98.34C52.89,197.65-11.52,228.22,2.26,275.62Z"/>
          </g>
          <path class="cls-5" d="M35.91,318.1s281.94-5.43,405.58-103.23c0,0,22.46,38.66-7.06,75.52,0,0-150.54,74.8-368.62,69.46,0,0-23.18-9.83-29.9-41.75Z"/>
          <path class="cls-5" d="M343.05,170.03c0,1.99.07,3.98.19,5.96.13,1.98.32,3.95.57,5.9.26,1.96.57,3.89.94,5.79s.81,3.78,1.3,5.62,1.05,3.64,1.66,5.4c.61,1.76,1.28,3.46,1.99,5.12s1.49,3.26,2.31,4.79c.82,1.54,1.69,3.02,2.6,4.43.91,1.41,1.87,2.74,2.87,4.01,1,1.27,2.04,2.45,3.11,3.56,1.08,1.1,2.18,2.13,3.32,3.07s2.31,1.79,3.51,2.55c1.19.76,2.41,1.43,3.65,2.01s2.49,1.06,3.76,1.45c1.27.39,2.54.68,3.83.88,1.29.19,2.58.29,3.87.29s2.58-.1,3.87-.29c1.29-.2,2.57-.49,3.83-.88,1.27-.39,2.52-.87,3.76-1.45,1.23-.58,2.45-1.25,3.65-2.01s2.36-1.61,3.5-2.55,2.25-1.96,3.32-3.07c1.08-1.11,2.11-2.29,3.11-3.56,1-1.26,1.95-2.6,2.87-4.01.92-1.41,1.78-2.89,2.6-4.43.82-1.54,1.59-3.14,2.31-4.79s1.38-3.36,1.99-5.12,1.16-3.56,1.66-5.4.93-3.71,1.31-5.62.69-3.83.94-5.79c.26-1.95.44-3.92.57-5.9.13-1.98.19-3.97.19-5.96s-.06-3.98-.19-5.96c-.13-1.98-.32-3.95-.57-5.91-.25-1.95-.56-3.89-.94-5.79s-.81-3.78-1.31-5.62c-.49-1.84-1.05-3.64-1.66-5.4-.61-1.76-1.27-3.46-1.99-5.11s-1.49-3.26-2.31-4.8c-.82-1.54-1.69-3.02-2.6-4.42s-1.87-2.74-2.87-4.01c-1-1.26-2.04-2.45-3.11-3.55-1.07-1.11-2.18-2.13-3.32-3.07-1.14-.94-2.31-1.79-3.5-2.55-1.19-.77-2.41-1.43-3.65-2.01-1.24-.58-2.49-1.06-3.76-1.45-1.27-.39-2.55-.68-3.83-.88-1.29-.2-2.57-.29-3.87-.29s-2.58.09-3.87.29c-1.29.19-2.56.48-3.83.88-1.27.39-2.52.87-3.76,1.45-1.24.58-2.45,1.24-3.65,2.01-1.2.76-2.36,1.61-3.51,2.55-1.14.94-2.24,1.96-3.32,3.07-1.07,1.1-2.11,2.29-3.11,3.55-1,1.27-1.96,2.6-2.87,4.01-.92,1.41-1.79,2.88-2.6,4.42s-1.59,3.14-2.31,4.8-1.38,3.36-1.99,5.11c-.61,1.76-1.16,3.56-1.66,5.4-.49,1.84-.93,3.71-1.3,5.62s-.69,3.84-.94,5.79c-.25,1.95-.44,3.92-.57,5.91-.13,1.98-.19,3.97-.19,5.96Z"/>
        </g>
      </g>
    </g>
  </g>
</svg>